<?xml version="1.0" encoding="UTF-8"?>
<svg version="1.1" xmlns="http://www.w3.org/2000/svg" width="1024" height="1024">
<path d="M0 0 C0.84137512 -0.01283524 1.68275024 -0.02567047 2.54962158 -0.03889465 C3.46104919 -0.04628159 4.37247681 -0.05366852 5.31152344 -0.0612793 C6.24889343 -0.06935104 7.18626343 -0.07742279 8.15203857 -0.08573914 C10.13926338 -0.09958491 12.12651203 -0.11030485 14.11376953 -0.11816406 C17.14499389 -0.13535117 20.17512033 -0.17922969 23.20605469 -0.22338867 C25.13703625 -0.23351788 27.06802709 -0.24203327 28.99902344 -0.2487793 C29.90235413 -0.26628738 30.80568481 -0.28379547 31.73638916 -0.30183411 C38.57850029 -0.27839448 42.20395894 1.53553299 47.17089844 6.36450195 C50.75909879 12.13125252 51.20424576 18.51833981 50.92089844 25.17700195 C51.65824219 25.41547852 52.39558594 25.65395508 53.15527344 25.8996582 C56.33036728 27.36612104 57.89997024 28.975198 60.17089844 31.61450195 C61.19957031 32.78819336 61.19957031 32.78819336 62.24902344 33.9855957 C65.90950628 38.78356503 65.0417736 44.24101952 65.05371094 50.0246582 C65.60879928 54.76221905 68.22581382 57.9033102 71.02636719 61.63916016 C73.91197817 65.50461456 76.35338434 69.62158201 78.85839844 73.73950195 C83.78944667 81.77786562 88.8199707 89.74541682 93.92089844 97.67700195 C99.45129119 106.28283905 104.90017347 114.93229131 110.26635742 123.64135742 C115.26125455 131.74517283 120.34140055 139.79347842 125.43701172 147.83422852 C127.93573436 151.77923386 130.42798049 155.72832701 132.92089844 159.67700195 C136.00222213 164.55635553 139.08404937 169.43538996 142.16699219 174.3137207 C142.9684668 175.5821582 142.9684668 175.5821582 143.78613281 176.8762207 C144.79899515 178.47918545 145.81200454 180.08205728 146.82519531 181.68481445 C149.87160746 186.50653494 152.90271036 191.3375642 155.92089844 196.17700195 C159.40235389 191.9191068 162.64114067 187.50998071 165.85839844 183.05200195 C166.70023682 181.88785767 166.70023682 181.88785767 167.55908203 180.70019531 C172.39498868 173.97872873 177.07950142 167.1589985 181.6940918 160.28393555 C182.20464111 159.52806152 182.71519043 158.7721875 183.24121094 157.9934082 C183.91047607 156.99482788 183.91047607 156.99482788 184.59326172 155.97607422 C185.93535241 154.15741546 187.18237463 152.62504032 188.92089844 151.17700195 C192.8518455 150.6766996 195.02147713 150.57738775 198.35839844 152.80200195 C200.46621506 156.00588323 200.4374087 157.35570147 199.92089844 161.17700195 C198.27273642 164.36347414 196.20900694 167.21234932 194.10839844 170.11450195 C193.51889404 170.95134521 192.92938965 171.78818848 192.32202148 172.65039062 C190.53824822 175.17166476 188.73413597 177.67685549 186.92089844 180.17700195 C186.41461914 180.87664062 185.90833984 181.5762793 185.38671875 182.29711914 C181.30157389 187.92572735 177.192921 193.53372947 172.94433594 199.0402832 C171.99879492 200.29401714 171.05347442 201.54791743 170.10839844 202.80200195 C169.65698486 203.37023682 169.20557129 203.93847168 168.74047852 204.52392578 C167.34434703 206.31195108 167.34434703 206.31195108 165.92089844 209.17700195 C167.04173866 212.95676116 168.99778578 216.09997888 171.10839844 219.4074707 C171.72457031 220.37491211 172.34074219 221.34235352 172.97558594 222.33911133 C173.93851563 223.83667969 173.93851563 223.83667969 174.92089844 225.36450195 C175.88382813 226.87947266 175.88382813 226.87947266 176.86621094 228.42504883 C180.04602454 233.5740937 180.04602454 233.5740937 183.92089844 238.17700195 C184.4908252 237.27667236 184.4908252 237.27667236 185.07226562 236.3581543 C193.42553195 223.18378915 201.90116391 210.09930683 210.54589844 197.11450195 C210.97028198 196.47542908 211.39466553 195.8363562 211.83190918 195.17791748 C225.81029671 174.142618 225.81029671 174.142618 230.92089844 172.17700195 C234.31886236 172.17700195 235.61031418 172.90465801 238.16552734 175.14526367 C241.81807505 178.92081548 244.6033166 183.32756637 247.50683594 187.68481445 C248.12684479 188.60608124 248.74685364 189.52734802 249.38565063 190.47653198 C251.361001 193.41485749 253.32837446 196.35843177 255.29589844 199.30200195 C256.61051778 201.25805705 257.92561732 203.2137895 259.24121094 205.16918945 C260.51768528 207.06994062 261.79374023 208.97097352 263.06933594 210.87231445 C263.65186127 211.74042755 264.2343866 212.60854065 264.83456421 213.50296021 C268.40696607 218.84902702 271.88966706 224.24547717 275.33071899 229.67694092 C277.28262699 232.74570724 279.27926837 235.77927292 281.29589844 238.8059082 C281.85543213 239.64592628 281.85543213 239.64592628 282.42626953 240.50291443 C283.20190866 241.66670793 283.9781103 242.83012673 284.75488281 243.99316406 C285.92132769 245.74014485 287.08528566 247.48876389 288.24902344 249.23754883 C289.01454405 250.38540491 289.78016787 251.53319217 290.54589844 252.6809082 C290.91634277 253.23799469 291.28678711 253.79508118 291.66845703 254.36904907 C294.51962647 258.6359515 297.5156481 262.78139347 300.60839844 266.87597656 C302.2205834 269.70239831 302.71762723 271.93574527 302.92089844 275.17700195 C300.85839844 278.55200195 300.85839844 278.55200195 297.92089844 281.17700195 C294.92089844 281.86450195 294.92089844 281.86450195 291.92089844 281.17700195 C287.67040846 277.47700749 284.84305302 273.2714971 281.89355469 268.54418945 C280.92222254 267.0157815 279.94968427 265.48813955 278.97607422 263.96118164 C278.47440735 263.17223511 277.97274048 262.38328857 277.45587158 261.57043457 C274.94832423 257.66049932 272.37198583 253.79718543 269.79199219 249.93481445 C269.2720166 249.15544022 268.75204102 248.37606598 268.21630859 247.57307434 C266.5979846 245.14872788 264.978212 242.72535336 263.35839844 240.30200195 C262.22172244 238.59952673 261.08516795 236.89697038 259.94873047 235.19433594 C257.68234005 231.79903905 255.41538612 228.4041196 253.14794922 225.00952148 C248.91843121 218.67681515 244.69468423 212.34026553 240.47146606 206.00335693 C238.62937605 203.23943287 236.78684062 200.47580585 234.94433594 197.7121582 C233.93652344 196.20043945 232.92871094 194.6887207 231.92089844 193.17700195 C225.61157857 202.60401995 219.36512903 212.07197451 213.13061523 221.54858398 C211.49054731 224.04113719 209.84930235 226.53291259 208.20800781 229.0246582 C207.13436815 230.65612127 206.06079958 232.28763112 204.98730469 233.91918945 C204.46673492 234.70928406 203.94616516 235.49937866 203.40982056 236.31341553 C200.98797459 239.99688208 198.5857857 243.68972716 196.23681641 247.42016602 C195.8261644 248.07018585 195.41551239 248.72020569 194.99241638 249.3899231 C193.90314504 251.12037797 192.82173974 252.85577741 191.7409668 254.59155273 C189.92089844 257.17700195 189.92089844 257.17700195 186.92089844 259.17700195 C183.54589844 259.61450195 183.54589844 259.61450195 179.92089844 259.17700195 C175.15757903 255.22731754 172.19660215 250.21990628 168.98339844 244.98950195 C168.4577832 244.14540771 167.93216797 243.30131348 167.390625 242.43164062 C163.84079417 236.71680913 160.32290636 230.98130494 156.92089844 225.17700195 C155.31910437 226.29511239 155.31910437 226.29511239 153.92089844 228.17700195 C153.48778372 231.10346927 153.48778372 231.10346927 153.48339844 234.36450195 C152.98723882 242.64301704 151.12045943 247.38396034 145.04589844 253.05200195 C139.77119871 257.31644612 134.9509956 258.66324178 128.22558594 258.4934082 C121.81977333 257.61396613 117.05311334 253.99791934 112.92089844 249.17700195 C112.17839844 248.37262695 111.43589844 247.56825195 110.67089844 246.73950195 C108.74920473 242.82748261 108.91727505 241.24396771 109.04589844 236.98950195 C108.62530107 226.77653512 101.8870592 220.05405198 95.6953125 212.40014648 C93.29164709 209.38861962 91.06584924 206.27104996 88.85839844 203.11450195 C88.0742856 202.00829286 87.28910784 200.90283794 86.50292969 199.7980957 C86.09768066 199.22816895 85.69243164 198.65824219 85.27490234 198.07104492 C82.00275253 193.4938112 78.69263526 188.94359559 75.38549805 184.39160156 C72.47462819 180.37371159 69.63970499 176.3274506 66.92089844 172.17700195 C66.15777344 172.50700195 65.39464844 172.83700195 64.60839844 173.17700195 C58.11186879 174.9387727 51.64897413 175.41818721 45.54589844 172.23950195 C44.96066406 171.87985352 44.37542969 171.52020508 43.77246094 171.1496582 C40.42747718 169.39248319 37.801514 168.97951628 34.09692383 169.81030273 C33.08106201 170.1607666 32.0652002 170.51123047 31.01855469 170.87231445 C29.88716064 171.25653564 28.7557666 171.64075684 27.59008789 172.03662109 C26.39988037 172.45419678 25.20967285 172.87177246 23.98339844 173.30200195 C22.7680542 173.71635498 21.55270996 174.13070801 20.30053711 174.55761719 C14.07333078 176.69007355 7.89267151 178.9196884 1.73339844 181.23950195 C-3.20889061 183.01207885 -6.85742317 184.01620027 -12.07910156 183.17700195 C-17.67888011 180.498847 -21.63421517 175.74345257 -25.90722656 171.3215332 C-27.88929046 169.1426526 -27.88929046 169.1426526 -30.07910156 168.17700195 C-30.34754883 168.89202881 -30.61599609 169.60705566 -30.89257812 170.34375 C-32.09704585 173.2198504 -33.49765114 175.81368564 -35.06347656 178.5090332 C-35.66208496 179.54310303 -36.26069336 180.57717285 -36.87744141 181.64257812 C-37.84351318 183.29930542 -37.84351318 183.29930542 -38.82910156 184.98950195 C-39.50204708 186.14861402 -40.17473205 187.30787738 -40.84716797 188.46728516 C-42.58094477 191.45460557 -44.31892137 194.43946013 -46.0579834 197.42370605 C-47.66391302 200.18114385 -49.26570823 202.94098188 -50.86816406 205.70043945 C-55.98861361 214.50813735 -61.12173794 223.30556217 -66.39477539 232.02294922 C-69.00649639 236.35485893 -71.57172296 240.71336031 -74.12597656 245.0793457 C-74.49373703 245.7078392 -74.8614975 246.3363327 -75.24040222 246.98387146 C-77.09235861 250.15000819 -78.94213689 253.31739661 -80.78930664 256.48632812 C-82.52614398 259.46283559 -84.27249179 262.43355047 -86.02764893 265.39929199 C-86.74101719 266.6053966 -87.45233634 267.8127151 -88.1618042 269.02111816 C-89.21817627 270.81528051 -90.28570805 272.60232163 -91.35644531 274.38793945 C-91.97640381 275.42998535 -92.5963623 276.47203125 -93.23510742 277.5456543 C-95.01822206 280.09012796 -96.43052892 281.58938301 -99.07910156 283.17700195 C-102.01660156 283.67700195 -102.01660156 283.67700195 -105.07910156 283.17700195 C-109.42665609 279.29179456 -113.02473746 274.74832691 -116.70410156 270.23950195 C-117.3107666 269.49966064 -117.91743164 268.75981934 -118.54248047 267.99755859 C-124.15250934 261.13375657 -129.64221075 254.17838583 -135.07910156 247.17700195 C-139.43823651 252.17184407 -142.28290149 257.85121545 -145.36816406 263.67114258 C-149.59631197 271.48543434 -149.59631197 271.48543434 -153.07910156 274.17700195 C-157.95103149 275.1354144 -157.95103149 275.1354144 -161.07910156 274.17700195 C-163.92023796 271.87616714 -165.92195736 269.1098465 -168.07910156 266.17700195 C-169.17339505 264.76033552 -170.27146366 263.34658178 -171.37207031 261.93481445 C-171.98236084 261.15146729 -172.59265137 260.36812012 -173.22143555 259.56103516 C-174.14098022 258.38093872 -174.14098022 258.38093872 -175.07910156 257.17700195 C-176.19914765 255.73579339 -177.31894529 254.29439171 -178.43847656 252.8527832 C-179.56862097 251.39830644 -180.69883068 249.94388043 -181.82910156 248.48950195 C-182.72773926 247.33309204 -182.72773926 247.33309204 -183.64453125 246.15332031 C-187.97461687 240.58565717 -192.32435839 235.03387113 -196.703125 229.50439453 C-198.59394867 227.10879237 -200.38474109 224.71854267 -202.07910156 222.17700195 C-206.61196823 228.87314016 -210.93664672 235.68435366 -215.20410156 242.55200195 C-216.52799562 244.6759023 -217.85221876 246.79959754 -219.17675781 248.9230957 C-219.8317627 249.97352051 -220.48676758 251.02394531 -221.16162109 252.10620117 C-223.97750844 256.61577986 -226.80579669 261.11742672 -229.64160156 265.61450195 C-230.10518066 266.35168457 -230.56875977 267.08886719 -231.04638672 267.84838867 C-233.41069599 271.59380369 -235.80410043 275.31976338 -238.23144531 279.0246582 C-238.70445068 279.74790283 -239.17745605 280.47114746 -239.66479492 281.21630859 C-241.03214426 283.11190371 -242.27559081 284.68921302 -244.07910156 286.17700195 C-248.01004863 286.67730431 -250.17968026 286.77661616 -253.51660156 284.55200195 C-255.64926101 281.31035959 -255.62228763 280.0575232 -255.07910156 276.17700195 C-253.28062539 272.59331674 -251.06153546 269.31528424 -248.82910156 265.98950195 C-247.53184535 264.00537615 -246.23497659 262.02099696 -244.93847656 260.03637695 C-244.28556641 259.04702148 -243.63265625 258.05766602 -242.95996094 257.03833008 C-240.2848901 252.96877787 -237.67600056 248.85922464 -235.07910156 244.73950195 C-234.36608887 243.61354614 -234.36608887 243.61354614 -233.63867188 242.46484375 C-228.91842454 234.98430521 -224.34229969 227.4160429 -219.79785156 219.82763672 C-211.84284381 206.63258986 -211.84284381 206.63258986 -207.07910156 205.17700195 C-200.76072288 204.56554595 -198.23714557 205.1774145 -193.07910156 209.17700195 C-190.94021493 211.38976696 -189.04016998 213.75697045 -187.14160156 216.17700195 C-186.59165527 216.86544189 -186.04170898 217.55388184 -185.47509766 218.26318359 C-179.693639 225.55436227 -174.13203625 233.0140812 -168.58691406 240.4855957 C-165.15343661 245.10386467 -161.63101762 249.64942614 -158.07910156 254.17700195 C-156.42497395 251.43191115 -154.78229322 248.68014075 -153.14160156 245.92700195 C-152.67302734 245.14969727 -152.20445312 244.37239258 -151.72167969 243.5715332 C-151.27373047 242.81743164 -150.82578125 242.06333008 -150.36425781 241.28637695 C-149.95054932 240.59511719 -149.53684082 239.90385742 -149.1105957 239.19165039 C-148.05400416 237.12798331 -147.35531012 235.482056 -147.07910156 233.17700195 C-148.65010194 230.9430939 -150.18485887 229.05104185 -152.01660156 227.05200195 C-153.04496067 225.8849271 -154.07229743 224.71695064 -155.09863281 223.5480957 C-155.60861816 222.97430176 -156.11860352 222.40050781 -156.64404297 221.80932617 C-159.23300189 218.86448451 -161.66554545 215.80197275 -164.08300781 212.71606445 C-165.56252441 210.83409618 -167.07576805 208.97853746 -168.60644531 207.13793945 C-169.45229607 206.08910389 -170.29736139 205.03963436 -171.14160156 203.98950195 C-171.91632813 203.04719727 -172.69105469 202.10489258 -173.48925781 201.1340332 C-175.53348006 197.33188028 -175.14838468 195.29152455 -174.07910156 191.17700195 C-172.45410156 189.17700195 -172.45410156 189.17700195 -170.07910156 188.17700195 C-165.57255559 188.26745211 -163.62587544 188.67281408 -160.27050781 191.7668457 C-159.37523362 192.86756807 -158.49955705 193.98444974 -157.64160156 195.11450195 C-156.93837769 195.99259521 -156.93837769 195.99259521 -156.22094727 196.88842773 C-154.82362856 198.63883107 -153.45094223 200.40660653 -152.07910156 202.17700195 C-150.64353924 203.97022155 -149.20626615 205.76207414 -147.76660156 207.55200195 C-147.19296875 208.28161133 -146.61933594 209.0112207 -146.02832031 209.76293945 C-143.44673809 212.96016955 -140.7659623 216.06811831 -138.07910156 219.17700195 C-137.66772949 218.42942627 -137.25635742 217.68185059 -136.83251953 216.91162109 C-123.51176977 192.71305918 -110.10438647 168.57231329 -96.25878906 144.66918945 C-95.70860107 143.70980469 -95.15841309 142.75041992 -94.59155273 141.76196289 C-93.67680874 140.19855541 -92.73596672 138.64948958 -91.74829102 137.13110352 C-89.01458605 132.86194884 -88.80061075 130.15008542 -89.51660156 125.17700195 C-90.34554762 116.92244434 -89.01663401 113.39973388 -83.82910156 106.92700195 C-79.86137612 102.6616971 -76.31992693 100.50818119 -70.40332031 99.90356445 C-63.28658335 99.65317858 -58.89430326 100.69694332 -53.45410156 105.48950195 C-50.25150467 109.11349317 -47.61617629 112.56577776 -46.07910156 117.17700195 C-46.19769531 117.84473633 -46.31628906 118.5124707 -46.43847656 119.20043945 C-46.94868655 122.27190356 -46.92261152 124.14514068 -46.07910156 127.17700195 C-43.1730628 131.07180812 -39.5194496 134.2490125 -35.92285156 137.48950195 C-34.98441406 138.37637695 -34.04597656 139.26325195 -33.07910156 140.17700195 C-33.07910156 140.83700195 -33.07910156 141.49700195 -33.07910156 142.17700195 C-29.77765771 139.06986428 -27.78390204 135.40822123 -25.57910156 131.48950195 C-20.39717974 122.41506937 -15.1041149 113.41044139 -9.76660156 104.42700195 C-9.35759613 103.73840088 -8.9485907 103.0497998 -8.52719116 102.34033203 C-3.19240611 93.36322356 2.17944763 84.41004263 7.60839844 75.48950195 C8.45325806 74.09235962 8.45325806 74.09235962 9.31518555 72.66699219 C11.65081766 68.81918125 14.00118964 65.0075952 16.55761719 61.30200195 C20.96531128 54.77892238 22.55615972 50.72088389 22.03808594 42.82543945 C21.8605127 38.81228424 22.77673013 36.5556914 24.92089844 33.17700195 C27.24211073 31.2303115 29.5716861 29.39008934 32.05761719 27.6574707 C34.92190545 24.36148192 34.92190545 24.36148192 33.92089844 15.17700195 C22.70089844 15.17700195 11.48089844 15.17700195 -0.07910156 15.17700195 C-0.73910156 16.82700195 -1.39910156 18.47700195 -2.07910156 20.17700195 C-2.76888096 21.54152647 -3.48417385 22.89343566 -4.22363281 24.23168945 C-4.64644531 24.99940674 -5.06925781 25.76712402 -5.50488281 26.55810547 C-6.19130859 27.79258423 -6.19130859 27.79258423 -6.89160156 29.05200195 C-7.37371094 29.92332764 -7.85582031 30.79465332 -8.35253906 31.69238281 C-13.66818685 41.27771253 -19.04984507 50.82577175 -24.47265625 60.35083008 C-26.06899964 63.15922994 -27.65614086 65.97270262 -29.24316406 68.78637695 C-30.22959514 70.52106374 -31.21654861 72.2554536 -32.20410156 73.98950195 C-32.65333984 74.79009033 -33.10257813 75.59067871 -33.56542969 76.41552734 C-34.19481445 77.51368774 -34.19481445 77.51368774 -34.83691406 78.6340332 C-35.19930176 79.2731665 -35.56168945 79.9122998 -35.93505859 80.57080078 C-37.07910156 82.17700195 -37.07910156 82.17700195 -40.07910156 84.17700195 C-44.17212893 84.79985394 -45.62158259 84.50797313 -49.01660156 82.05200195 C-51.07910156 79.17700195 -51.07910156 79.17700195 -50.89990234 76.35742188 C-50.02057571 72.95022734 -48.78899953 70.44617336 -47.00878906 67.4152832 C-46.04573853 65.75625977 -46.04573853 65.75625977 -45.06323242 64.0637207 C-44.71968719 63.48154785 -44.37614197 62.899375 -44.02218628 62.29956055 C-42.1886415 59.19229441 -40.38471165 56.06783062 -38.57519531 52.9465332 C-38.20227859 52.3054361 -37.82936188 51.66433899 -37.44514465 51.0038147 C-32.91645947 43.20622656 -28.56994354 35.30939484 -24.21728516 27.41259766 C-21.29428866 22.12201511 -18.34990862 16.84381881 -15.35253906 11.5949707 C-14.80388184 10.63099365 -14.25522461 9.6670166 -13.68994141 8.67382812 C-10.36612036 3.52185513 -6.25002772 0.08299239 0 0 Z M36.92089844 40.17700195 C35.69882834 43.69045348 35.67442637 45.48379926 36.92089844 48.98950195 C38.84917812 51.47937156 38.84917812 51.47937156 42.35839844 52.17700195 C45.79369638 52.37760915 45.79369638 52.37760915 48.35839844 51.30200195 C50.54565339 48.32733522 50.53527875 45.90417099 50.38183594 42.2746582 C50.07719743 39.91085339 50.07719743 39.91085339 47.60839844 38.11450195 C43.03847541 36.52034276 40.66221013 37.22333483 36.92089844 40.17700195 Z M32.92089844 63.17700195 C25.18404625 74.80377149 18.14963166 86.8427593 11.05883789 98.8687439 C5.65883578 108.0199104 0.17039402 117.11830323 -5.30517578 126.22436523 C-7.07755361 129.17442544 -8.84650472 132.12651225 -10.61425781 135.0793457 C-11.16823242 136.00432861 -11.72220703 136.92931152 -12.29296875 137.88232422 C-13.32929803 139.61296879 -14.36513593 141.34390773 -15.40039062 143.07519531 C-15.85768555 143.83840088 -16.31498047 144.60160645 -16.78613281 145.38793945 C-17.18292236 146.05100098 -17.57971191 146.7140625 -17.98852539 147.3972168 C-18.97981496 149.01496942 -20.02666431 150.59834607 -21.07910156 152.17700195 C-20.75144063 155.37472273 -19.62783467 156.99296568 -17.35644531 159.19262695 C-16.81826172 159.72114258 -16.28007812 160.2496582 -15.72558594 160.79418945 C-15.16162109 161.33301758 -14.59765625 161.8718457 -14.01660156 162.42700195 C-13.44876953 162.98129883 -12.8809375 163.5355957 -12.29589844 164.10668945 C-10.89697687 165.47034409 -9.48891043 166.82460612 -8.07910156 168.17700195 C-7.01997559 167.82395996 -5.96084961 167.47091797 -4.86962891 167.10717773 C8.06054688 162.79711914 20.99072266 158.48706055 33.92089844 154.17700195 C34.00726562 153.53633789 34.09363281 152.89567383 34.18261719 152.2355957 C35.2879356 145.43129613 36.93737346 140.10658983 42.66308594 135.89575195 C48.25256584 132.53726618 53.41933439 131.34953016 59.92089844 132.17700195 C66.06981492 134.08846288 70.42356643 137.81962394 73.92089844 143.17700195 C75.74809937 146.86106616 75.94585436 148.92531253 75.29589844 152.92700195 C75.14773397 161.44076031 81.22333667 167.50243206 86.18017578 173.90795898 C89.01387441 177.60170303 91.70873496 181.39367544 94.42089844 185.17700195 C95.50385234 186.67337038 96.58718605 188.169464 97.67089844 189.6652832 C101.91735665 195.54509297 106.09245435 201.47485718 110.26464844 207.4074707 C112.79880264 211.01025537 115.3567285 214.59552546 117.92089844 218.17700195 C118.5296582 218.02328125 119.13841797 217.86956055 119.765625 217.71118164 C126.88342801 215.94705013 133.03620311 215.02971266 139.92089844 218.17700195 C140.91089844 218.17700195 141.90089844 218.17700195 142.92089844 218.17700195 C145.3692945 215.54636714 145.3692945 215.54636714 146.92089844 212.17700195 C145.79447108 208.31940679 143.75352485 205.06995049 141.64746094 201.66918945 C140.66652466 200.07965454 140.66652466 200.07965454 139.66577148 198.45800781 C138.95932191 197.32256377 138.25269358 196.18723092 137.54589844 195.05200195 C136.81886309 193.87839686 136.09205862 192.70464871 135.36547852 191.53076172 C126.97038327 177.98312124 118.45559595 164.51745653 109.77416992 151.15161133 C106.52840523 146.14389355 103.37525675 141.08639189 100.26464844 135.9934082 C92.14410478 122.7276469 83.84738999 109.56352608 75.49804688 96.44067383 C72.60894056 91.89037996 69.77852179 87.30916163 66.98339844 82.70043945 C66.30921875 81.59764648 65.63503906 80.49485352 64.94042969 79.35864258 C63.61529363 77.18895655 62.29983379 75.01332486 60.99511719 72.83129883 C60.393125 71.84967773 59.79113281 70.86805664 59.17089844 69.85668945 C58.37425781 68.53773682 58.37425781 68.53773682 57.56152344 67.19213867 C56.08921232 65.06314004 56.08921232 65.06314004 53.90527344 64.32202148 C51.70984795 64.03372282 51.70984795 64.03372282 48.92089844 65.17700195 C47.13210042 65.29607055 45.33861284 65.35222309 43.54589844 65.36450195 C42.14210938 65.38577148 42.14210938 65.38577148 40.70996094 65.4074707 C37.75971689 65.16368303 35.59725731 64.40812704 32.92089844 63.17700195 Z M-73.45410156 115.73950195 C-75.67871577 119.07642326 -75.57940392 121.24605489 -75.07910156 125.17700195 C-73.47656627 127.84789411 -72.1793402 128.14431544 -69.20410156 129.11450195 C-66.00942471 129.42068463 -66.00942471 129.42068463 -63.20410156 127.73950195 C-60.99576895 125.07651262 -60.69245964 124.40122877 -60.51660156 121.11450195 C-60.72181284 117.26632413 -60.72181284 117.26632413 -62.70410156 115.17700195 C-66.787872 113.45751966 -69.69349077 113.2654159 -73.45410156 115.73950195 Z M-59.78222656 140.73168945 C-63.7295879 142.46216776 -65.63737214 141.99430116 -69.82910156 141.30200195 C-73.57183784 141.09935393 -73.57183784 141.09935393 -77.07910156 142.17700195 C-80.93804363 146.36436462 -83.14872489 151.17863374 -85.61816406 156.2746582 C-88.16797989 161.3402014 -91.06175957 166.21325067 -93.90698242 171.11663818 C-95.65641961 174.14123929 -97.38248741 177.17910535 -99.11035156 180.21606445 C-101.54231288 184.4848727 -103.97897073 188.75094146 -106.42285156 193.01293945 C-111.6373949 202.10935655 -116.80922077 211.22577217 -121.87158203 220.40795898 C-122.25072754 221.09486816 -122.62987305 221.78177734 -123.02050781 222.48950195 C-123.37000488 223.13016602 -123.71950195 223.77083008 -124.07958984 224.4309082 C-124.96573903 225.97896364 -125.96666333 227.46004812 -126.98144531 228.92700195 C-128.33088025 231.07085159 -128.33088025 231.07085159 -127.57128906 233.0949707 C-125.52165951 235.95479413 -123.40305451 238.743984 -121.20410156 241.48950195 C-120.48903442 242.39079834 -120.48903442 242.39079834 -119.75952148 243.31030273 C-118.20342178 245.26912498 -116.64171892 247.22337609 -115.07910156 249.17700195 C-113.94755886 250.59494494 -112.81604873 252.01291392 -111.68457031 253.4309082 C-108.82078407 257.01672435 -105.95135419 260.59796465 -103.07910156 264.17700195 C-100.93003293 261.40708249 -99.0758311 258.589842 -97.32128906 255.5559082 C-96.78705322 254.63567871 -96.25281738 253.71544922 -95.70239258 252.76733398 C-95.12545654 251.76814941 -94.54852051 250.76896484 -93.95410156 249.73950195 C-92.6901623 247.56089391 -91.4258219 245.38251856 -90.16113281 243.2043457 C-89.6657325 242.35018066 -89.6657325 242.35018066 -89.1603241 241.47875977 C-86.75341182 237.33067306 -84.33248291 233.191 -81.90332031 229.0559082 C-81.55392395 228.46112167 -81.20452759 227.86633514 -80.84454346 227.25352478 C-80.13412782 226.04433248 -79.42367849 224.83515998 -78.7131958 223.62600708 C-72.15343191 212.46036011 -65.65512619 201.26157273 -59.20068359 190.03466797 C-55.86120515 184.23506793 -52.48423606 178.46338663 -49.01660156 172.73950195 C-45.52626441 166.97515726 -42.24921704 161.12235887 -39.07910156 155.17700195 C-41.6960132 152.5022924 -44.32391865 149.83865714 -46.95410156 147.17700195 C-48.07365234 146.03231445 -48.07365234 146.03231445 -49.21582031 144.86450195 C-49.93125 144.14262695 -50.64667969 143.42075195 -51.38378906 142.67700195 C-52.04362793 142.00668945 -52.7034668 141.33637695 -53.38330078 140.64575195 C-56.04266065 138.3424538 -56.75713358 138.99182384 -59.78222656 140.73168945 Z M49.92089844 147.17700195 C47.60807257 150.64624076 47.49611258 152.0990577 47.92089844 156.17700195 C49.47331425 158.54647872 50.62012328 159.07410519 53.29589844 159.98950195 C56.41375268 160.21220583 58.17260756 159.6274888 60.92089844 158.17700195 C62.44581842 155.127162 62.15652392 152.53466505 61.92089844 149.17700195 C60.4812013 147.01745625 59.40204857 146.38550034 57.04589844 145.36450195 C54.16108925 145.10995997 52.46558236 145.83769463 49.92089844 147.17700195 Z M126.10839844 230.17700195 C123.61852883 232.10528164 123.61852883 232.10528164 122.92089844 235.61450195 C122.67843109 239.06865483 122.67843109 239.06865483 123.98339844 241.55200195 C126.65505103 243.79274284 128.44995042 244.10758299 131.92089844 244.17700195 C134.248214 243.03920323 136.08930558 242.00859481 137.92089844 240.17700195 C137.76988475 234.58086197 137.76988475 234.58086197 134.92089844 230.17700195 C131.45552282 229.17589344 129.53085484 228.96012857 126.10839844 230.17700195 Z " fill="#28596C" transform="translate(486.0791015625,294.822998046875)"/>
<path d="M0 0 C3.6812982 1.35626776 4.23058584 1.77967594 6.375 4.78125 C6.89570068 5.50723389 7.41640137 6.23321777 7.95288086 6.98120117 C10.72600954 10.99767406 13.43896219 15.0498063 16.125 19.125 C24.73430953 32.11481724 33.45175085 45.03089305 42.17483521 57.94448853 C50.34521872 70.04001104 58.48242504 82.1564459 66.5625 94.3125 C67.26487793 95.36904785 67.96725586 96.4255957 68.69091797 97.51416016 C69.3098291 98.44534668 69.92874023 99.3765332 70.56640625 100.3359375 C76.20752537 108.82165724 81.86000736 117.29797992 87.59765625 125.71875 C88.23396721 126.65323471 88.23396721 126.65323471 88.88313293 127.6065979 C90.94885613 130.63935747 93.01778759 133.66984579 95.09204102 136.69677734 C107.14279279 154.32842954 107.14279279 154.32842954 108.25 159.5625 C107.25909143 163.52613429 105.41553273 165.39153791 102.5625 168.3125 C99.54178369 169.82285816 96.41829383 169.46050343 93.10453796 169.45967102 C92.32639844 169.46334771 91.54825892 169.4670244 90.74653941 169.4708125 C88.12488363 169.48187359 85.50326745 169.48569726 82.8815918 169.48950195 C81.00765862 169.49576473 79.1337267 169.50241136 77.25979614 169.50941467 C72.1585062 169.52684066 67.05722565 169.5373806 61.95591331 169.5456202 C58.77083214 169.55076652 55.58575391 169.55684239 52.40067482 169.56313133 C42.44116603 169.58218709 32.48166468 169.59641792 22.52214116 169.6047433 C11.01449129 169.61452088 -0.4929665 169.64085243 -12.00054866 169.68124419 C-20.88806872 169.7113722 -29.77553361 169.72620899 -38.66310376 169.72952431 C-43.97467542 169.73187842 -49.28604196 169.74088571 -54.59755898 169.76598549 C-59.59376387 169.7892135 -64.58962782 169.79352071 -69.58587265 169.78322411 C-71.42048843 169.78272736 -73.25512069 169.78908842 -75.08968544 169.80278015 C-77.59306406 169.82041927 -80.0952085 169.81343298 -82.59858704 169.80024719 C-83.32582971 169.81121644 -84.05307239 169.82218568 -84.80235273 169.83348733 C-89.61010044 169.77228306 -92.08033722 168.74950574 -95.4375 165.3125 C-96.4375 162.875 -96.4375 162.875 -96.4375 160.3125 C-95.23798304 157.59780372 -94.24595365 155.86151677 -91.77425766 154.18300056 C-88.52779084 152.97361063 -85.70025873 153.06708533 -82.23687744 153.07199097 C-81.51067097 153.07028212 -80.78446451 153.06857327 -80.03625178 153.06681263 C-77.60251804 153.063518 -75.16905991 153.07452089 -72.73535156 153.08544922 C-70.99094143 153.08601334 -69.24653083 153.08569676 -67.50212097 153.08456421 C-62.76486411 153.08398973 -58.02770826 153.09575952 -53.29047489 153.10971212 C-48.34036329 153.12220354 -43.39024944 153.12338873 -38.44012451 153.12576294 C-29.06562881 153.13198238 -19.69117969 153.14839949 -10.31670451 153.16846192 C0.35548823 153.19080647 11.02768317 153.20181072 21.69989347 153.21185279 C43.65412166 153.2327653 65.6083079 153.26795031 87.5625 153.3125 C86.60773276 151.87441452 85.65217652 150.43685285 84.69628906 148.99951172 C84.16424866 148.19891327 83.63220825 147.39831482 83.08404541 146.57345581 C81.22555004 143.81180579 79.27809597 141.12381449 77.3125 138.4375 C69.79305649 128.0368589 62.80722883 117.25719509 55.71777344 106.56152344 C52.98754172 102.44576408 50.24819236 98.33613861 47.50683594 94.2277832 C46.26641721 92.36793388 45.02734396 90.50718599 43.79003906 88.64526367 C36.34111283 77.44304105 28.79547688 66.30571042 21.26757812 55.15649414 C19.37854811 52.35847719 17.48993828 49.56017728 15.6015625 46.76171875 C14.9935379 45.86089066 14.38551331 44.96006256 13.75906372 44.03193665 C9.72434239 38.04937748 5.70929181 32.05413163 1.73599243 26.03056335 C-1.10251448 21.74675222 -4.11403414 17.62232568 -7.2578125 13.55859375 C-8.80019641 10.62193564 -8.78508542 8.58596267 -8.4375 5.3125 C-5.84007418 1.61313595 -4.54364874 0.41305898 0 0 Z " fill="#347B67" transform="translate(753.4375,444.6875)"/>
<path d="M0 0 C1.24044308 -0.00874829 1.24044308 -0.00874829 2.50594562 -0.01767331 C3.40914746 -0.01389399 4.31234929 -0.01011467 5.24292088 -0.00622082 C6.2065291 -0.01004636 7.17013733 -0.01387191 8.16294581 -0.01781338 C11.40031699 -0.02815383 14.63751116 -0.02414923 17.87489414 -0.02018261 C20.19246682 -0.02452849 22.51003806 -0.02971122 24.82760715 -0.03567028 C31.12917407 -0.04908454 37.4306811 -0.04963627 43.73225951 -0.04710698 C48.98846311 -0.04603896 54.24465451 -0.05091629 59.50085551 -0.0557124 C72.60763674 -0.06745117 85.71438379 -0.06657769 98.82116724 -0.06015559 C110.20512236 -0.05498596 121.58899193 -0.06624257 132.97293013 -0.08525381 C144.66080851 -0.10462308 156.34864274 -0.11259825 168.03653723 -0.10913056 C174.59887144 -0.10731476 181.16112728 -0.1099835 187.72344875 -0.1238451 C193.89334738 -0.13638963 200.06307435 -0.1345113 206.23297024 -0.12143421 C208.49974213 -0.11906155 210.76652599 -0.12182766 213.03328419 -0.13005733 C216.1231396 -0.140468 219.21241296 -0.13246964 222.30224705 -0.11974621 C223.65370371 -0.13080764 223.65370371 -0.13080764 225.03246254 -0.14209253 C231.0332663 -0.08996304 234.48008826 0.89848807 238.83607578 5.25447559 C239.39929417 11.44987789 239.39929417 11.44987789 237.52357578 14.12947559 C234.64515467 16.048423 232.12323493 16.38034182 228.76396465 16.38869667 C227.51605796 16.39538344 227.51605796 16.39538344 226.24294102 16.40220529 C225.32904445 16.40202093 224.41514788 16.40183656 223.47355747 16.40164661 C222.50263656 16.4053233 221.53171566 16.40899999 220.5313729 16.41278809 C217.26330634 16.42384093 213.99527154 16.42767145 210.72718906 16.43147755 C208.39006035 16.43774086 206.05293263 16.44438754 203.71580601 16.45139027 C197.35635008 16.46880929 190.99690168 16.47935395 184.63742781 16.4875958 C180.66722355 16.4927428 176.69702164 16.49881859 172.72681904 16.50510693 C161.73611651 16.52197565 150.74541606 16.53661174 139.75470257 16.54385567 C136.90308347 16.54576557 134.05146438 16.5476859 131.19984531 16.54964161 C130.49108706 16.55012535 129.7823288 16.55060909 129.05209301 16.55110749 C117.56459425 16.55941204 106.07719947 16.58475731 94.58974613 16.61722229 C82.79794551 16.65027604 71.00619778 16.6683028 59.21435058 16.67149991 C52.59272852 16.67366632 45.97124092 16.68287602 39.34965992 16.70796108 C33.1231186 16.73116874 26.89685088 16.73550443 20.6702776 16.7251997 C18.38253465 16.72470249 16.09477856 16.73107708 13.80707645 16.74475574 C10.68857325 16.76236174 7.57106402 16.75542389 4.45256138 16.74222279 C3.54312625 16.75319203 2.63369112 16.76416128 1.69669735 16.77546293 C-2.44077982 16.73305343 -4.61074843 16.59639807 -8.20245457 14.37633514 C-10.51245891 11.87744113 -11.16392422 10.65708964 -11.16392422 7.25447559 C-8.81526416 1.93908703 -5.73636601 0.00697667 0 0 Z " fill="#1A436D" transform="translate(312.1639242172241,597.7455244064331)"/>
<path d="M0 0 C4.25623964 1.17725777 5.66454725 3.09312277 7.9375 6.8125 C7.75465287 12.02730019 5.49706825 15.49575022 2.5625 19.625 C1.64329131 20.96008465 0.72536861 22.29605542 -0.19140625 23.6328125 C-0.66723145 24.32149414 -1.14305664 25.01017578 -1.63330078 25.71972656 C-3.94510723 29.10489992 -6.15917422 32.55154281 -8.375 36 C-9.30180713 37.43767809 -10.22889638 38.87517435 -11.15625 40.3125 C-11.86587891 41.41271484 -11.86587891 41.41271484 -12.58984375 42.53515625 C-14.10680284 44.88101076 -15.63042915 47.2224007 -17.15625 49.5625 C-22.74349254 58.13234155 -28.28378013 66.72740723 -33.75 75.375 C-40.0628297 85.35772181 -46.59818827 95.1844185 -53.19799805 104.97875977 C-53.93187744 106.07115967 -54.66575684 107.16355957 -55.421875 108.2890625 C-56.40365723 109.7443335 -56.40365723 109.7443335 -57.40527344 111.22900391 C-58.79034736 113.38823376 -59.94122927 115.51281474 -61.0625 117.8125 C-59.97335297 117.80361755 -58.88420593 117.79473511 -57.76205444 117.7855835 C-47.492113 117.70445629 -37.22223667 117.64451466 -26.95204735 117.60525131 C-21.67215991 117.58438689 -16.3925314 117.55608988 -11.11279297 117.51074219 C-6.01642948 117.467244 -0.92031487 117.44335427 4.17621994 117.43299103 C6.11947929 117.42560682 8.0627252 117.41118712 10.00587845 117.38957977 C12.73029135 117.36049303 15.45367917 117.3565462 18.17822266 117.35839844 C18.97951599 117.34401733 19.78080933 117.32963623 20.60638428 117.31481934 C25.8139418 117.35306539 28.83852709 118.31085289 32.9375 121.8125 C34.0625 124.75 34.0625 124.75 33.9375 127.8125 C32.16710551 130.55966387 30.87458156 132.34395922 27.9375 133.8125 C26.5828006 133.91227965 25.22339781 133.95185351 23.86505127 133.95967102 C23.01272919 133.96682632 22.1604071 133.97398163 21.28225708 133.98135376 C20.34509857 133.98404266 19.40794006 133.98673157 18.44238281 133.98950195 C17.45686432 133.99607315 16.47134583 134.00264435 15.45596313 134.00941467 C12.18418304 134.02917644 8.91244892 134.04081697 5.640625 134.05078125 C4.52462669 134.05485678 3.40862839 134.0589323 2.25881195 134.06313133 C-3.64842037 134.08400479 -9.55562938 134.09830075 -15.46289062 134.10766602 C-21.56738833 134.11873041 -27.67152152 134.15312735 -33.77589035 134.19283772 C-38.46678346 134.21897364 -43.15758936 134.22735521 -47.84854889 134.23094749 C-50.09881297 134.2358216 -52.34907296 134.24745892 -54.59926605 134.26598549 C-57.74973985 134.29031094 -60.89926589 134.28942359 -64.04980469 134.2824707 C-65.44339706 134.30168579 -65.44339706 134.30168579 -66.86514282 134.32128906 C-72.55722846 134.27552165 -75.704092 133.56083678 -80.0625 129.8125 C-81.66108909 126.61532183 -81.41413448 124.37455729 -81.0625 120.8125 C-79.62751512 117.50739129 -77.74575996 114.53451023 -75.8125 111.5 C-75.27181885 110.62625732 -74.7311377 109.75251465 -74.17407227 108.85229492 C-69.60185052 101.51886178 -64.8250375 94.32097624 -59.98828125 87.16015625 C-52.17467623 75.58778242 -44.74392736 63.75836416 -37.25878906 51.97241211 C-33.24576091 45.65766493 -29.1990881 39.36613789 -25.11645508 33.09619141 C-22.68211481 29.34835819 -20.28576154 25.58032798 -17.92578125 21.78515625 C-17.13131592 20.51128052 -17.13131592 20.51128052 -16.32080078 19.21166992 C-15.30757155 17.58347952 -14.29906947 15.95233327 -13.29638672 14.31762695 C-5.24409827 1.39129138 -5.24409827 1.39129138 0 0 Z " fill="#1A4172" transform="translate(244.0625,480.1875)"/>
<path d="M0 0 C2.24926368 -0.12015972 4.5003702 -0.20617962 6.75170898 -0.27758789 C8.00499496 -0.32911514 9.25828094 -0.3806424 10.54954529 -0.43373108 C14 0 14 0 16.34074402 2.05506897 C18.21250892 4.79214163 19.64330037 7.56554631 21.0625 10.5625 C22.2120913 12.75137997 23.36183508 14.94017986 24.51171875 17.12890625 C25.08067871 18.2595752 25.64963867 19.39024414 26.23583984 20.55517578 C29.09693846 26.14195982 32.25062913 31.55764473 35.375 37 C36.46834014 38.93626259 37.55969812 40.87364672 38.6484375 42.8125 C39.10395996 43.62332031 39.55948242 44.43414063 40.02880859 45.26953125 C40.34930176 45.84058594 40.66979492 46.41164063 41 47 C43.3878645 43.98290695 45.23478262 40.8800671 47.0390625 37.484375 C47.61567627 36.40470459 48.19229004 35.32503418 48.78637695 34.21264648 C49.69649536 32.49863647 49.69649536 32.49863647 50.625 30.75 C54.79682531 22.94655074 58.97267637 15.14910274 63.3125 7.4375 C63.67875488 6.78426758 64.04500977 6.13103516 64.42236328 5.45800781 C66.86958469 1.13041531 66.86958469 1.13041531 68 0 C70.16480797 -0.0989294 72.33293785 -0.129711 74.5 -0.125 C75.6859375 -0.12757813 76.871875 -0.13015625 78.09375 -0.1328125 C81 0 81 0 82 1 C82.09439978 3.26991887 82.11742226 5.54281967 82.11352539 7.81469727 C82.11367142 8.52685394 82.11381744 9.23901062 82.1139679 9.9727478 C82.1132687 12.33733112 82.10547606 14.70183661 82.09765625 17.06640625 C82.09579209 18.70165463 82.09436818 20.33690357 82.09336853 21.97215271 C82.08954318 26.28434785 82.07971275 30.59650952 82.06866455 34.90869141 C82.0584508 39.30565946 82.05387099 43.70263289 82.04882812 48.09960938 C82.03809049 56.73308831 82.02101387 65.36654 82 74 C79.37670316 75.31164842 77.36301375 75.13262846 74.4375 75.125 C73.44621094 75.12757813 72.45492187 75.13015625 71.43359375 75.1328125 C69 75 69 75 68 74 C67.87767356 72.52749355 67.8222544 71.04934289 67.79467773 69.57202148 C67.7647599 68.16067177 67.7647599 68.16067177 67.73423767 66.72080994 C67.71752518 65.69790359 67.70081268 64.67499725 67.68359375 63.62109375 C67.66281265 62.57929459 67.64203156 61.53749542 67.62062073 60.46412659 C67.55500943 57.12198753 67.49618669 53.77976715 67.4375 50.4375 C67.39432578 48.17772582 67.35071186 45.91795999 67.30664062 43.65820312 C67.19931633 38.10555579 67.09757188 32.55282679 67 27 C66.57702637 27.79583496 66.15405273 28.59166992 65.71826172 29.41162109 C64.12123787 32.41339811 62.52183573 35.41388373 60.92089844 38.41357422 C60.2334441 39.70279181 59.54689333 40.99249169 58.86132812 42.28271484 C47.68143657 63.31856343 47.68143657 63.31856343 45 66 C39.94277161 66.75858426 39.94277161 66.75858426 37 66 C35.70214844 64.57958984 35.70214844 64.57958984 34.609375 62.6484375 C34.19010742 61.92116455 33.77083984 61.1938916 33.33886719 60.44458008 C32.89704102 59.63786865 32.45521484 58.83115723 32 58 C31.5246582 57.15010498 31.04931641 56.30020996 30.55957031 55.42456055 C29.02067456 52.64716993 27.50731094 49.85714629 26 47.0625 C24.97950155 45.17820401 23.95867185 43.29408738 22.9375 41.41015625 C22.49277344 40.58652588 22.04804688 39.76289551 21.58984375 38.91430664 C19.41636939 34.93015992 17.20406014 30.96730826 15 27 C14.67 42.84 14.34 58.68 14 75 C9.71 75 5.42 75 1 75 C0 74 0 74 -0.12025452 71.07041931 C-0.11803391 69.75803787 -0.11581329 68.44565643 -0.11352539 67.09350586 C-0.11367142 66.37159561 -0.11381744 65.64968536 -0.1139679 64.90589905 C-0.11326869 62.50885053 -0.10547595 60.11187877 -0.09765625 57.71484375 C-0.0957921 56.05717511 -0.09436818 54.39950593 -0.09336853 52.74183655 C-0.08954312 48.37045786 -0.07971265 43.99911219 -0.06866455 39.62774658 C-0.05845092 35.17045539 -0.05387101 30.71315889 -0.04882812 26.25585938 C-0.0380904 17.50389107 -0.02101371 8.75194964 0 0 Z " fill="#194272" transform="translate(300,657)"/>
<path d="M0 0 C1.40897804 0.00333092 1.40897804 0.00333092 2.84642029 0.00672913 C3.90744461 0.00680466 4.96846893 0.00688019 6.06164551 0.00695801 C7.21579453 0.01211929 8.36994354 0.01728058 9.55906677 0.02259827 C10.73404221 0.02401321 11.90901764 0.02542816 13.11959839 0.02688599 C16.88981116 0.0325046 20.65996556 0.04506026 24.43016052 0.05775452 C26.97898779 0.06276712 29.52781599 0.06733044 32.0766449 0.07142639 C38.34033685 0.08248007 44.60399452 0.0992363 50.86766052 0.12025452 C51.06317391 1.72346425 51.24878035 3.32788437 51.43016052 4.93275452 C51.58678162 6.27273499 51.58678162 6.27273499 51.74656677 7.63978577 C51.86766052 10.12025452 51.86766052 10.12025452 50.86766052 13.12025452 C37.99766052 13.12025452 25.12766052 13.12025452 11.86766052 13.12025452 C11.86766052 18.40025452 11.86766052 23.68025452 11.86766052 29.12025452 C23.08766052 29.45025452 34.30766052 29.78025452 45.86766052 30.12025452 C45.86766052 34.08025452 45.86766052 38.04025452 45.86766052 42.12025452 C44.86766052 43.12025452 44.86766052 43.12025452 41.72483826 43.14198303 C40.33347291 43.09965654 38.9422739 43.05163419 37.55125427 42.99916077 C36.45467247 42.96374428 36.45467247 42.96374428 35.3359375 42.9276123 C32.99215596 42.85080367 30.6486907 42.76685421 28.30516052 42.68275452 C26.71988974 42.629551 25.13460334 42.5768105 23.54930115 42.52455139 C19.65516165 42.39603867 15.76153135 42.25788453 11.86766052 42.12025452 C11.86766052 48.39025452 11.86766052 54.66025452 11.86766052 61.12025452 C32.16266052 61.61525452 32.16266052 61.61525452 52.86766052 62.12025452 C52.86766052 66.08025452 52.86766052 70.04025452 52.86766052 74.12025452 C51.18753711 75.80037793 49.1167886 75.2477279 46.81297302 75.24964905 C45.19624695 75.25437729 45.19624695 75.25437729 43.54685974 75.25920105 C42.373974 75.25717682 41.20108826 75.25515259 39.99266052 75.25306702 C38.79786072 75.25402374 37.60306091 75.25498047 36.37205505 75.25596619 C33.83999072 75.25664823 31.30792465 75.25479229 28.77586365 75.25062561 C24.88454792 75.24527773 20.99334763 75.25056984 17.10203552 75.25697327 C14.64891027 75.25631249 12.19578508 75.25503134 9.74266052 75.25306702 C8.56977478 75.25509125 7.39688904 75.25711548 6.1884613 75.25920105 C5.11064392 75.25604889 4.03282654 75.25289673 2.92234802 75.24964905 C1.96828064 75.24885345 1.01421326 75.24805786 0.03123474 75.24723816 C-2.13233948 75.12025452 -2.13233948 75.12025452 -3.13233948 74.12025452 C-3.23201534 71.85576072 -3.26033779 69.5881124 -3.26173401 67.32142639 C-3.26348633 66.61087601 -3.26523865 65.90032562 -3.26704407 65.16824341 C-3.27146225 62.80847261 -3.26852473 60.44877614 -3.26515198 58.08900452 C-3.26582503 56.45615118 -3.26679506 54.82329794 -3.26805115 53.19044495 C-3.26952807 49.76388091 -3.26737373 46.33734288 -3.26271057 42.91078186 C-3.25701328 38.5087095 -3.26029231 34.10669811 -3.26628304 29.70462799 C-3.26988879 26.33157386 -3.26875 22.95853429 -3.26615524 19.58547974 C-3.26548601 17.96189364 -3.26631426 16.33830625 -3.2686348 14.71472168 C-3.27116156 12.44947281 -3.26732042 10.18432402 -3.26173401 7.91908264 C-3.26093842 6.6274823 -3.26014282 5.33588196 -3.25932312 4.00514221 C-3.09070163 0.1743019 -3.09070163 0.1743019 0 0 Z " fill="#234B7A" transform="translate(404.13233947753906,656.8797454833984)"/>
<path d="M0 0 C6.39375 -0.0825 12.7875 -0.165 19.375 -0.25 C21.37224121 -0.28641602 23.36948242 -0.32283203 25.42724609 -0.36035156 C37.83821842 -0.4938456 47.00025616 0.42010057 56.375 9.265625 C62.0676137 15.34139539 62.42604522 21.5768707 62.3359375 29.60546875 C61.73015925 35.72664661 59.51922112 40.5124009 55.1328125 44.84375 C45.97756167 52.11095299 36.46713613 53.09375318 25.125 53.5625 C24.15046875 53.60568359 23.1759375 53.64886719 22.171875 53.69335938 C19.78137198 53.79882274 17.39077556 53.90094175 15 54 C15.00523682 54.60062256 15.01047363 55.20124512 15.01586914 55.82006836 C15.03658014 58.52586838 15.04964125 61.23165177 15.0625 63.9375 C15.07087891 64.88302734 15.07925781 65.82855469 15.08789062 66.80273438 C15.09111328 67.70185547 15.09433594 68.60097656 15.09765625 69.52734375 C15.10289307 70.35999756 15.10812988 71.19265137 15.11352539 72.05053711 C15 74 15 74 14 75 C12.21059028 75.09908783 10.41714492 75.12970379 8.625 75.125 C7.64789063 75.12757813 6.67078125 75.13015625 5.6640625 75.1328125 C3 75 3 75 0 74 C0 49.58 0 25.16 0 0 Z M14 13 C14.33 21.91 14.66 30.82 15 40 C17.949375 40.061875 20.89875 40.12375 23.9375 40.1875 C24.84749756 40.21481201 25.75749512 40.24212402 26.69506836 40.27026367 C33.60149685 40.33935024 40.01043692 39.33331753 45.5625 35 C47.77591756 30.38069379 47.61325527 26.02717897 47 21 C45.71267562 17.56713499 44.64625359 16.44483789 41.65625 14.38671875 C36.31143934 12.35957368 31.28306367 12.68354454 25.625 12.8125 C21.78875 12.874375 17.9525 12.93625 14 13 Z " fill="#1A4374" transform="translate(158,657)"/>
<path d="M0 0 C7.43042531 5.23605994 12.64941053 11.10301884 15 20 C16.26703273 28.75308442 15.07652079 35.71852574 10 43 C5.11254986 49.16862639 -0.60722092 52.53574031 -8 55 C-18.21807726 55.9618869 -27.25376287 54.35207297 -35.375 47.8125 C-41.71153942 41.77522219 -45.07151063 34.57598461 -45.3125 25.875 C-45.19499971 17.05072854 -42.01305725 10.159645 -36 3.7578125 C-25.68906654 -5.30453136 -11.95926137 -6.95743193 0 0 Z M-25 13 C-28.89779688 16.89779688 -30.15564165 20.31666242 -30.375 25.75 C-30.31502267 30.31494098 -29.49282409 33.09978467 -26.5390625 36.58984375 C-22.46456392 40.32307722 -18.37169988 41.26628224 -13 41.0625 C-7.75921882 40.35039385 -4.32142002 38.0832136 -1 34 C0.80393865 28.58818405 0.92194895 22.40731114 -1.125 17.0625 C-4.42747074 13.42978219 -7.58044905 11.4017597 -12.3125 10.0625 C-17.0351531 9.98245503 -20.78489133 10.86391011 -25 13 Z " fill="#398B68" transform="translate(731,401)"/>
<path d="M0 0 C3.61520999 2.5256181 6.19410148 5.0262566 8.52734375 8.765625 C8.93726563 9.41015625 9.3471875 10.0546875 9.76953125 10.71875 C13.66004587 17.96315653 13.89856258 26.5349644 11.83203125 34.41796875 C8.46355017 42.69763864 2.60768373 48.95526284 -5.47265625 52.765625 C-13.70201602 55.75676662 -21.7309599 55.28084696 -29.66015625 51.640625 C-38.48580323 46.80522343 -43.32820048 40.19899232 -46.47265625 30.765625 C-47.35159541 21.40154237 -45.42776571 13.1692746 -39.47265625 5.765625 C-28.23699769 -5.6417576 -14.39162397 -8.26793967 0 0 Z M-28.47265625 13.765625 C-32.41849002 19.14378718 -32.2492492 24.32601156 -31.47265625 30.765625 C-29.71887921 34.61044388 -28.25127354 36.20946979 -24.84765625 38.640625 C-20.28494951 40.16152725 -16.23450229 40.47022336 -11.47265625 39.765625 C-6.33956834 37.15241661 -3.29286545 34.22625259 -1.47265625 28.765625 C-1.05186156 23.29529403 -1.8339474 19.5880929 -4.47265625 14.765625 C-9.08396806 10.38487878 -12.93819122 9.40381601 -19.12109375 9.484375 C-23.08280837 9.95820133 -25.25960429 11.38796655 -28.47265625 13.765625 Z " fill="#1A4071" transform="translate(297.47265625,439.234375)"/>
<path d="M0 0 C9.71375725 5.35485419 15.7165873 12.66840557 19.234375 23.19921875 C21.23073229 34.31892884 19.96924421 45.11538765 14.15234375 54.8359375 C8.31297918 63.14633341 -0.50561805 68.23849405 -10.375 70.375 C-19.01333469 71.71204118 -27.8448759 71.46853066 -36.5625 71.5 C-37.6865625 71.50475342 -38.810625 71.50950684 -39.96875 71.5144043 C-41.02449219 71.512229 -42.08023438 71.51005371 -43.16796875 71.5078125 C-44.1221167 71.50668457 -45.07626465 71.50555664 -46.05932617 71.50439453 C-48.375 71.375 -48.375 71.375 -50.375 70.375 C-50.375 45.955 -50.375 21.535 -50.375 -3.625 C-36.55423119 -8.23192294 -13.21254945 -6.01015846 0 0 Z M-41.375 4.375 C-41.375 23.845 -41.375 43.315 -41.375 63.375 C-36.63125 63.2925 -31.8875 63.21 -27 63.125 C-25.5248291 63.10920898 -24.0496582 63.09341797 -22.52978516 63.07714844 C-12.25087725 62.81340873 -3.57653055 61.25725591 4.15625 54.08984375 C10.81686745 46.31321859 11.26084724 37.06555049 10.80859375 27.296875 C10.17212128 20.63422699 6.36009473 14.90422105 1.625 10.375 C-12.9460645 1.6323613 -21.52724507 4.375 -41.375 4.375 Z " fill="#204A79" transform="translate(773.375,660.625)"/>
<path d="M0 0 C1.66796875 1.29296875 1.66796875 1.29296875 3.1875 3.1875 C3.78433594 3.92097656 4.38117187 4.65445313 4.99609375 5.41015625 C5.65738281 6.26480469 6.31867187 7.11945312 7 8 C7.75410156 8.96808594 8.50820313 9.93617188 9.28515625 10.93359375 C10.97853741 13.12023902 12.65998258 15.31560114 14.3359375 17.515625 C16.98680021 20.99159067 19.67344582 24.43833233 22.375 27.875 C23.05163696 28.73593262 23.05163696 28.73593262 23.74194336 29.61425781 C27.71707861 34.66067138 31.73112686 39.67583269 35.76513672 44.67529297 C39.28305322 49.05046569 42.62606572 53.50142096 46 58 C46.33 39.19 46.66 20.38 47 1 C54 0 54 0 56 1 C56.02313952 10.35308865 56.04092333 19.70616749 56.05181217 29.05927849 C56.05703746 33.4019967 56.06412873 37.74469538 56.07543945 42.08740234 C56.08628085 46.27598387 56.09227951 50.46454656 56.09487724 54.65314102 C56.09672922 56.25357485 56.10034552 57.8540076 56.10573006 59.45443344 C56.1129571 61.69083661 56.11399023 63.92716131 56.11352539 66.16357422 C56.115746 67.43820526 56.11796661 68.7128363 56.12025452 70.02609253 C56 73 56 73 55 75 C51.828125 75.3828125 51.828125 75.3828125 48 75 C45.8463222 72.95213874 44.40551289 71.27371442 42.75 68.875 C41.79613257 67.57901498 40.84168958 66.28345342 39.88671875 64.98828125 C39.4076709 64.3226416 38.92862305 63.65700195 38.43505859 62.97119141 C36.22586168 59.93664634 33.89484638 57.00273623 31.5625 54.0625 C30.64694844 52.89728231 29.73158576 51.73191618 28.81640625 50.56640625 C25.46077797 46.30810809 22.07239376 42.07608733 18.67407227 37.85180664 C13.39406922 31.27665492 8.2112126 24.6324524 3 18 C2.67 36.81 2.34 55.62 2 75 C-1.465 75.495 -1.465 75.495 -5 76 C-7 74 -7 74 -7.24050903 70.98812866 C-7.23606781 69.69573273 -7.23162659 68.40333679 -7.22705078 67.07177734 C-7.22734283 66.35947464 -7.22763489 65.64717194 -7.22793579 64.9132843 C-7.22654016 62.55404566 -7.21096827 60.19512111 -7.1953125 57.8359375 C-7.19158319 56.20211968 -7.18873583 54.56829962 -7.18673706 52.93447876 C-7.1790941 48.63047124 -7.15943999 44.32659832 -7.1373291 40.02264404 C-7.1168849 35.63230205 -7.1077384 31.24193835 -7.09765625 26.8515625 C-7.07619466 18.23431318 -7.04205081 9.61717332 -7 1 C-4.44383444 -0.27808278 -2.8348962 -0.28822162 0 0 Z " fill="#1F4B76" transform="translate(546,656)"/>
<path d="M0 0 C1 3 1 3 -0.07299805 5.40991211 C-0.90891479 6.82929077 -0.90891479 6.82929077 -1.76171875 8.27734375 C-2.69056885 9.86772461 -2.69056885 9.86772461 -3.63818359 11.49023438 C-3.9725946 12.05186279 -4.30700562 12.61349121 -4.65155029 13.19213867 C-5.69666477 14.95294074 -6.72240338 16.72387343 -7.74462891 18.49804688 C-10.86315423 23.88052275 -14.04413565 29.1684828 -17.63671875 34.25390625 C-26.37597615 46.88582584 -27.61909678 57.54609676 -26.98510742 72.81713867 C-27 75 -27 75 -28 76 C-29.97619447 76.12514928 -31.95738173 76.1757276 -33.9375 76.1875 C-35.01902344 76.20167969 -36.10054687 76.21585938 -37.21484375 76.23046875 C-40 76 -40 76 -42 74 C-42.04907227 71.93823242 -42.04907227 71.93823242 -41.81640625 69.35546875 C-40.84070408 50.2310727 -47.71143231 38.48789805 -57.92578125 23.13623047 C-60.57012342 19.13797016 -63.04779623 15.05505349 -65.5 10.9375 C-66.1703125 9.85339844 -66.840625 8.76929688 -67.53125 7.65234375 C-68.80080843 5.35971031 -69.55764493 3.5619731 -70 1 C-67.61877077 0.75460615 -65.26284078 0.57835578 -62.875 0.4375 C-62.20984375 0.36208984 -61.5446875 0.28667969 -60.859375 0.20898438 C-58.8671875 0.12109375 -58.8671875 0.12109375 -55 1 C-52.40180988 3.64776005 -50.77468889 6.763618 -49 10 C-47.7970411 12.03211984 -46.592544 14.06332969 -45.38671875 16.09375 C-44.15076772 18.22750214 -42.91773003 20.36294426 -41.6875 22.5 C-40.44276434 24.65703427 -39.19674313 26.81332739 -37.94921875 28.96875 C-37.40612061 29.91169922 -36.86302246 30.85464844 -36.3034668 31.82617188 C-35.17750273 33.90343329 -35.17750273 33.90343329 -34 35 C-33.53625977 34.18321777 -33.07251953 33.36643555 -32.59472656 32.52490234 C-30.85951528 29.47115595 -29.12231455 26.41855912 -27.38378906 23.36669922 C-26.63430072 22.05009157 -25.88558897 20.7330415 -25.13769531 19.41552734 C-24.05742092 17.51280405 -22.9742868 15.61173313 -21.890625 13.7109375 C-21.24125977 12.56931152 -20.59189453 11.42768555 -19.92285156 10.25146484 C-16.13783087 3.85114671 -16.13783087 3.85114671 -14 1 C-10.546875 0.1953125 -10.546875 0.1953125 -6.75 0.125 C-4.85507812 0.06699219 -4.85507812 0.06699219 -2.921875 0.0078125 C-1.47554687 0.00394531 -1.47554687 0.00394531 0 0 Z " fill="#163B6A" transform="translate(292,656)"/>
<path d="M0 0 C0.04241723 2.33294775 0.04092937 4.66702567 0 7 C-1 8 -1 8 -4.87719727 8.11352539 C-6.60694167 8.11336621 -8.33669081 8.10766849 -10.06640625 8.09765625 C-10.97502914 8.0962413 -11.88365204 8.09482635 -12.81980896 8.09336853 C-15.73407221 8.08775193 -18.64825981 8.07519665 -21.5625 8.0625 C-23.53320202 8.05748714 -25.50390524 8.05292386 -27.47460938 8.04882812 C-32.31645914 8.03862617 -37.15814447 8.01905409 -42 8 C-42 15.92 -42 23.84 -42 32 C-39.41285156 31.98839844 -36.82570313 31.97679687 -34.16015625 31.96484375 C-31.66479617 31.95705338 -29.16943743 31.95097651 -26.67407227 31.94506836 C-24.93480832 31.94002796 -23.19554864 31.9331957 -21.45629883 31.92456055 C-18.96174063 31.91248208 -16.46723827 31.90676892 -13.97265625 31.90234375 C-13.19036148 31.89718246 -12.40806671 31.89202118 -11.60206604 31.88670349 C-9.73432886 31.88650774 -7.86670796 31.93800306 -6 32 C-5 33 -5 33 -4.875 36 C-5 39 -5 39 -6 40 C-8.6662603 40.08855161 -11.30647114 40.11524673 -13.97265625 40.09765625 C-14.77029892 40.0962413 -15.56794159 40.09482635 -16.38975525 40.09336853 C-18.94737435 40.08775316 -21.50490718 40.07519812 -24.0625 40.0625 C-25.79231645 40.05748698 -27.52213426 40.05292373 -29.25195312 40.04882812 C-33.50136239 40.03862791 -37.75058416 40.01905568 -42 40 C-42 48.25 -42 56.5 -42 65 C-37.46958984 65.09087891 -37.46958984 65.09087891 -32.84765625 65.18359375 C-29.93527592 65.2453317 -27.02293647 65.30874068 -24.1105957 65.37231445 C-22.08035896 65.41573241 -20.05008408 65.45740226 -18.01977539 65.49731445 C-15.10811849 65.55485146 -12.19665486 65.61859278 -9.28515625 65.68359375 C-8.3716188 65.70030624 -7.45808136 65.71701874 -6.51686096 65.73423767 C-0.11387171 65.88612829 -0.11387171 65.88612829 1 67 C1.04092937 69.33297433 1.04241723 71.66705225 1 74 C-4.90303463 75.0542401 -10.54412265 75.0496641 -16.52734375 74.87890625 C-17.40491333 74.85824097 -18.28248291 74.83757568 -19.18664551 74.81628418 C-22.43708957 74.73804653 -25.68728368 74.64968723 -28.9375 74.5625 C-39.8584375 74.2840625 -39.8584375 74.2840625 -51 74 C-51 49.58 -51 25.16 -51 0 C-43.884375 -0.185625 -36.76875 -0.37125 -29.4375 -0.5625 C-27.20411865 -0.62381104 -24.9707373 -0.68512207 -22.66967773 -0.74829102 C-20.88266109 -0.79229297 -19.09563367 -0.83586021 -17.30859375 -0.87890625 C-15.93725281 -0.9189679 -15.93725281 -0.9189679 -14.53820801 -0.95983887 C-9.55234997 -1.07393636 -4.91292177 -0.87321231 0 0 Z " fill="#18406F" transform="translate(863,657)"/>
<path d="M0 0 C0.74999268 0.00161133 1.49998535 0.00322266 2.27270508 0.00488281 C11.06225904 0.19837251 17.73928998 3.20921367 24.75 8.375 C24.44573612 11.26550687 24.25638033 12.88809583 22.125 14.9375 C18.92989674 15.52607165 17.34156707 14.2754859 14.7265625 12.515625 C7.49222549 8.34086925 -1.60935884 8.11436731 -9.64453125 9.91015625 C-12.18873085 10.89034262 -13.91284836 11.8504149 -15.40234375 14.16796875 C-16.38040182 16.71452547 -16.55017592 18.71387766 -16.5625 21.4375 C-16.57925781 22.29472656 -16.59601562 23.15195312 -16.61328125 24.03515625 C-16.16211348 26.94106479 -15.52284434 27.5528216 -13.25 29.375 C-10.69256812 30.35985784 -10.69256812 30.35985784 -7.76953125 31.05859375 C-6.1462793 31.49075195 -6.1462793 31.49075195 -4.49023438 31.93164062 C-3.35908203 32.22232422 -2.22792969 32.51300781 -1.0625 32.8125 C19.33955624 38.07563914 19.33955624 38.07563914 25.75 47.375 C28.30650685 52.02319426 28.54557295 56.48978923 27.1328125 61.61328125 C24.83286767 67.66844575 21.43500049 71.28972393 15.75 74.375 C11.00298234 76.34954296 6.58545895 76.72726121 1.5 76.6875 C0.74710693 76.68186035 -0.00578613 76.6762207 -0.78149414 76.67041016 C-10.40376289 76.46129791 -19.84354024 73.86874451 -27.25 67.375 C-28.15234375 64.8671875 -28.15234375 64.8671875 -28.25 62.375 C-27.59 61.385 -26.93 60.395 -26.25 59.375 C-24.93 59.375 -23.61 59.375 -22.25 59.375 C-22.25 60.035 -22.25 60.695 -22.25 61.375 C-21.52683594 61.66117188 -20.80367187 61.94734375 -20.05859375 62.2421875 C-18.30965292 62.94760174 -16.57026749 63.67784017 -14.84765625 64.4453125 C-6.48129239 67.92592612 3.2015624 69.40114301 11.9375 66.1875 C15.19211259 64.09008299 16.47401762 63.04344934 17.75 59.375 C18.00132271 54.98470648 17.91611707 51.71603463 14.953125 48.30859375 C9.22902828 44.8531939 2.63436115 43.76051637 -3.81640625 42.1953125 C-11.98809492 40.08143855 -19.76403907 37.28375369 -24.8125 30.125 C-27.25466509 25.02683969 -27.1447125 19.53445351 -25.625 14.16796875 C-22.87839914 7.75514621 -17.85193041 3.87323886 -11.5078125 1.234375 C-7.64293889 0.21486397 -3.97090897 -0.00887453 0 0 Z " fill="#184373" transform="translate(647.25,655.625)"/>
<path d="M0 0 C1.06886948 -0.0099852 1.06886948 -0.0099852 2.15933228 -0.02017212 C3.66381254 -0.03027538 5.16833741 -0.03498986 6.67285156 -0.03466797 C8.96234857 -0.03903539 11.24990702 -0.07535849 13.5390625 -0.11328125 C15.00520179 -0.11915134 16.47135017 -0.12311945 17.9375 -0.125 C18.61581879 -0.13937103 19.29413757 -0.15374207 19.99301147 -0.16854858 C24.95689873 -0.1213632 27.80908076 1.18232492 31.6015625 4.3359375 C32.7265625 7.2734375 32.7265625 7.2734375 32.6015625 10.3359375 C30.50128104 13.71138984 29.39953366 15.06994711 25.6015625 16.3359375 C23.07433705 16.46819089 20.57541486 16.54800525 18.046875 16.57421875 C17.30831268 16.5822905 16.56975037 16.59036224 15.80880737 16.59867859 C14.24707369 16.61249623 12.68531011 16.62322875 11.12353516 16.63110352 C9.52904392 16.64263426 7.93459162 16.66310363 6.34033203 16.69262695 C4.03391345 16.73533841 1.72864013 16.75147545 -0.578125 16.76171875 C-1.28661591 16.77922684 -1.99510681 16.79673492 -2.72506714 16.81477356 C-6.31994216 16.79909156 -8.26928545 16.41865903 -11.32470703 14.46166992 C-13.75279184 11.97269718 -14.3984375 10.80713772 -14.3984375 7.3359375 C-13.20214613 4.62854125 -12.21128468 2.88913518 -9.74755859 1.21240234 C-6.51539617 0.00647186 -3.40507464 0.01110618 0 0 Z " fill="#296172" transform="translate(594.3984375,597.6640625)"/>
<path d="M0 0 C2.64 0 5.28 0 8 0 C8 24.42 8 48.84 8 74 C2 75 2 75 -1 74 C-1.02312484 64.49925675 -1.0409158 54.99852312 -1.05181217 45.49775791 C-1.05704069 41.08662996 -1.06413777 36.6755212 -1.07543945 32.2644043 C-1.08626944 28.01098885 -1.09227707 23.75759191 -1.09487724 19.50416374 C-1.09673129 17.87778367 -1.10035152 16.25140466 -1.10573006 14.62503242 C-1.11294198 12.35489807 -1.11399088 10.08484115 -1.11352539 7.81469727 C-1.115746 6.52008072 -1.11796661 5.22546417 -1.12025452 3.89161682 C-1 1 -1 1 0 0 Z " fill="#284E78" transform="translate(692,657)"/>
<path d="M0 0 C0.02312465 9.63112712 0.04091571 19.26224474 0.05181217 28.89339352 C0.05704074 33.36505549 0.06413789 37.83669853 0.07543945 42.30834961 C0.08626929 46.62011973 0.09227704 50.93187159 0.09487724 55.24365425 C0.09673132 56.89236298 0.1003516 58.54107066 0.10573006 60.18977165 C0.11294178 62.49103872 0.11399089 64.7922294 0.11352539 67.09350586 C0.115746 68.4058873 0.11796661 69.71826874 0.12025452 71.07041931 C0 74 0 74 -1 75 C-4 75.125 -4 75.125 -7 75 C-8.87655377 73.12344623 -8.18402724 69.91948937 -8.22119141 67.41650391 C-8.2326973 66.72867325 -8.24420319 66.04084259 -8.25605774 65.33216858 C-8.29288817 63.0470127 -8.32244958 60.76182883 -8.3515625 58.4765625 C-8.37466813 56.89333694 -8.39805836 55.31011551 -8.42172241 53.72689819 C-8.47024996 50.402929 -8.51516746 47.07893501 -8.55761719 43.75488281 C-8.61236573 39.49191158 -8.67620763 35.2291342 -8.74279213 30.96633339 C-8.79285908 27.69447592 -8.83798859 24.42256457 -8.88163376 21.15061569 C-8.90321649 19.57889989 -8.92636641 18.00720481 -8.9510994 16.43553543 C-8.98496291 14.23781728 -9.01216081 12.04011481 -9.03759766 9.84228516 C-9.05456696 8.59065582 -9.07153625 7.33902649 -9.08901978 6.04946899 C-9 3 -9 3 -8 0 C-5.13822943 -1.43088528 -3.06624227 -0.59991697 0 0 Z " fill="#1B436F" transform="translate(516,657)"/>
<path d="M0 0 C0.04241723 2.33294775 0.04092937 4.66702567 0 7 C-1 8 -1 8 -4.87719727 8.11352539 C-6.60694167 8.11336621 -8.33669081 8.10766849 -10.06640625 8.09765625 C-10.97502914 8.0962413 -11.88365204 8.09482635 -12.81980896 8.09336853 C-15.73407221 8.08775193 -18.64825981 8.07519665 -21.5625 8.0625 C-23.53320202 8.05748714 -25.50390524 8.05292386 -27.47460938 8.04882812 C-32.31645914 8.03862617 -37.15814447 8.01905409 -42 8 C-42 15.92 -42 23.84 -42 32 C-41.34 32.33 -40.68 32.66 -40 33 C-41.32 33 -42.64 33 -44 33 C-44 24.09 -44 15.18 -44 6 C-29.81 6 -15.62 6 -1 6 C-1 4.35 -1 2.7 -1 1 C-17.17 1 -33.34 1 -50 1 C-50 24.1 -50 47.2 -50 71 C-47.31672606 71.89442465 -45.65850261 72.14581687 -42.89575195 72.20532227 C-42.07512772 72.22526749 -41.25450348 72.24521271 -40.40901184 72.26576233 C-39.52767075 72.28247482 -38.64632965 72.29918732 -37.73828125 72.31640625 C-36.37959175 72.3475779 -36.37959175 72.3475779 -34.99345398 72.37937927 C-32.09987984 72.44476558 -29.20621493 72.50370904 -26.3125 72.5625 C-24.35090207 72.6056956 -22.38931332 72.64931023 -20.42773438 72.69335938 C-15.61858261 72.80043582 -10.80933954 72.90173414 -6 73 C-6 73.33 -6 73.66 -6 74 C-20.85 74 -35.7 74 -51 74 C-51 49.58 -51 25.16 -51 0 C-43.884375 -0.185625 -36.76875 -0.37125 -29.4375 -0.5625 C-27.20411865 -0.62381104 -24.9707373 -0.68512207 -22.66967773 -0.74829102 C-20.88266109 -0.79229297 -19.09563367 -0.83586021 -17.30859375 -0.87890625 C-15.93725281 -0.9189679 -15.93725281 -0.9189679 -14.53820801 -0.95983887 C-9.55234997 -1.07393636 -4.91292177 -0.87321231 0 0 Z " fill="#1E4E86" transform="translate(863,657)"/>
<path d="M0 0 C0.33 0 0.66 0 1 0 C1.042721 1.66611905 1.04063832 3.33382885 1 5 C0 6 0 6 -3.87719727 6.11352539 C-5.60694167 6.11336621 -7.33669081 6.10766849 -9.06640625 6.09765625 C-9.97502914 6.0962413 -10.88365204 6.09482635 -11.81980896 6.09336853 C-14.73407221 6.08775193 -17.64825981 6.07519665 -20.5625 6.0625 C-22.53320202 6.05748714 -24.50390524 6.05292386 -26.47460938 6.04882812 C-31.31645914 6.03862617 -36.15814447 6.01905409 -41 6 C-41 13.92 -41 21.84 -41 30 C-40.34 30.33 -39.68 30.66 -39 31 C-40.32 31 -41.64 31 -43 31 C-43 22.09 -43 13.18 -43 4 C-28.81 4 -14.62 4 0 4 C0 2.68 0 1.36 0 0 Z " fill="#3F7BB5" transform="translate(862,659)"/>
<path d="M0 0 C1.98 0 3.96 0 6 0 C6.33 4.95 6.66 9.9 7 15 C7.33 15 7.66 15 8 15 C8.23888371 34.12356014 7.95706462 52.94984975 6 72 C5.34 71.67 4.68 71.34 4 71 C4.03029297 70.33621338 4.06058594 69.67242676 4.09179688 68.98852539 C5.08722616 46.32145195 5.10897259 23.68474071 5 1 C3.35 1 1.7 1 0 1 C0 0.67 0 0.34 0 0 Z " fill="#13365B" transform="translate(594,658)"/>
<path d="M0 0 C2 2 2 2 2.22705078 4.33837891 C2.21657715 5.29147949 2.20610352 6.24458008 2.1953125 7.2265625 C2.18886719 8.2578125 2.18242187 9.2890625 2.17578125 10.3515625 C2.15902344 11.43179688 2.14226562 12.51203125 2.125 13.625 C2.11597656 14.71296875 2.10695312 15.8009375 2.09765625 16.921875 C2.07403518 19.61467649 2.03816333 22.30736535 2 25 C5.63 25 9.26 25 13 25 C12.979375 23.288125 12.95875 21.57625 12.9375 19.8125 C12.92958532 13.17208182 13.40294363 6.61026697 14 0 C14.33 0 14.66 0 15 0 C15.02886537 4.31248609 15.04675255 8.62494762 15.0625 12.9375 C15.07087891 14.16919922 15.07925781 15.40089844 15.08789062 16.66992188 C15.09111328 17.83974609 15.09433594 19.00957031 15.09765625 20.21484375 C15.10289307 21.29886475 15.10812988 22.38288574 15.11352539 23.49975586 C15 26 15 26 14 27 C12.02380553 27.12514928 10.04261827 27.1757276 8.0625 27.1875 C6.98097656 27.20167969 5.89945313 27.21585938 4.78515625 27.23046875 C2 27 2 27 0 25 C-0.22705078 22.47802734 -0.22705078 22.47802734 -0.1953125 19.3359375 C-0.18886719 18.21445312 -0.18242187 17.09296875 -0.17578125 15.9375 C-0.15902344 14.761875 -0.14226562 13.58625 -0.125 12.375 C-0.11597656 11.19164062 -0.10695312 10.00828125 -0.09765625 8.7890625 C-0.07402812 5.85917477 -0.04108514 2.9296866 0 0 Z " fill="#449AC7" transform="translate(250,705)"/>
<path d="M0 0 C6.20915262 7.45098315 11.50083601 15.41634152 16 24 C15.34 24.66 14.68 25.32 14 26 C8.72 18.08 3.44 10.16 -2 2 C-1.34 1.34 -0.68 0.68 0 0 Z " fill="#3E9C72" transform="translate(774,494)"/>
<path d="M0 0 C0.721875 0.103125 1.44375 0.20625 2.1875 0.3125 C1.259375 0.7146875 1.259375 0.7146875 0.3125 1.125 C-2.1120233 2.26806848 -2.1120233 2.26806848 -3.8125 5.3125 C-3.60320322 10.85886459 -1.88109633 13.81189204 1.1875 18.3125 C0.8575 19.3025 0.5275 20.2925 0.1875 21.3125 C-3.7714387 17.46965921 -7.33334243 13.70828787 -8.4375 8.1875 C-7.41296733 3.47464974 -4.89108659 0.54345407 0 0 Z " fill="#3E9A70" transform="translate(752.8125,444.6875)"/>
<path d="M0 0 C3.47898596 4.22448296 6.6322469 8.63248962 9.75 13.125 C10.25660156 13.84042969 10.76320313 14.55585937 11.28515625 15.29296875 C11.76339844 15.98261719 12.24164062 16.67226563 12.734375 17.3828125 C13.16975586 18.00559082 13.60513672 18.62836914 14.05371094 19.27001953 C15 21 15 21 15 24 C11.25140301 21.25445812 8.85201795 18.64820577 6.4375 14.6875 C5.84839844 13.72328125 5.25929688 12.7590625 4.65234375 11.765625 C3.83443359 10.39664063 3.83443359 10.39664063 3 9 C2.54753906 8.27296875 2.09507812 7.5459375 1.62890625 6.796875 C0.68263204 5.23830572 -0.17078608 3.62387726 -1 2 C-0.67 1.34 -0.34 0.68 0 0 Z " fill="#429E71" transform="translate(821,542)"/>
<path d="M0 0 C0.33 0 0.66 0 1 0 C0.75967711 4.00538145 0.26922244 7.15900435 -2.0625 10.4375 C-5.11739312 13.10240677 -5.54321509 13.36831687 -9.3125 13.375 C-10.529375 13.25125 -11.74625 13.1275 -13 13 C-13.33 11.68 -13.66 10.36 -14 9 C-11.03 9 -8.06 9 -5 9 C-3.35 6.03 -1.7 3.06 0 0 Z " fill="#204978" transform="translate(338,556)"/>
<path d="M0 0 C2 3 2 3 1.875 5.4375 C0.78665774 8.62478806 -0.27723273 10.01311577 -3 12 C-5.9375 12.5625 -5.9375 12.5625 -9 12 C-12.10164769 9.44975635 -13.72566416 7.82300753 -15 4 C-14.01 4 -13.02 4 -12 4 C-11.566875 4.66 -11.13375 5.32 -10.6875 6 C-9.10128914 8.3400126 -9.10128914 8.3400126 -5.9375 8.375 C-2.88138759 8.28930236 -2.88138759 8.28930236 -1 6 C-0.60235737 4.01178687 -0.26224651 2.01055661 0 0 Z " fill="#469C73" transform="translate(787,564)"/>
<path d="M0 0 C3.09338708 2.8894275 5.33468369 5.84408711 7.5625 9.4375 C8.14128906 10.36433594 8.72007812 11.29117188 9.31640625 12.24609375 C10.8915475 14.8226009 12.4518483 17.40719882 14 20 C13.34 20.99 12.68 21.98 12 23 C10.96939453 21.33710937 10.96939453 21.33710937 9.91796875 19.640625 C9.00790881 18.17702344 8.09774722 16.71348509 7.1875 15.25 C6.73568359 14.52039063 6.28386719 13.79078125 5.81835938 13.0390625 C3.13977836 8.73401111 3.13977836 8.73401111 0.11328125 4.671875 C-0.25410156 4.12015625 -0.62148438 3.5684375 -1 3 C-0.67 2.01 -0.34 1.02 0 0 Z " fill="#4D9A7F" transform="translate(751,533)"/>
<path d="M0 0 C1.7734375 0.1640625 1.7734375 0.1640625 4 1 C5.8515625 3.3984375 5.8515625 3.3984375 7.625 6.375 C8.21539063 7.35210937 8.80578125 8.32921875 9.4140625 9.3359375 C9.93742188 10.21507812 10.46078125 11.09421875 11 12 C11.99 13.485 11.99 13.485 13 15 C13 15.99 13 16.98 13 18 C13.99 18.33 14.98 18.66 16 19 C15.34 19.99 14.68 20.98 14 22 C0 2.38297872 0 2.38297872 0 0 Z " fill="#499A80" transform="translate(723,494)"/>
<path d="M0 0 C3.21708061 3.96296113 6.29938665 8.00635585 9.3125 12.125 C9.77978516 12.74503906 10.24707031 13.36507812 10.72851562 14.00390625 C11.90006952 15.61327866 12.95962427 17.30287407 14 19 C13.67 19.99 13.34 20.98 13 22 C9.23664263 18.55392803 6.50997512 14.64887654 3.6875 10.4375 C3.22021484 9.76525391 2.75292969 9.09300781 2.27148438 8.40039062 C1.09722618 6.6537466 0.03904838 4.83030766 -1 3 C-0.67 2.01 -0.34 1.02 0 0 Z " fill="#439B73" transform="translate(772,542)"/>
<path d="M0 0 C2.69090301 3.22908361 5.18154046 6.58221735 7.625 10 C8.51058594 11.2375 8.51058594 11.2375 9.4140625 12.5 C10.96248982 14.94087065 12.02138657 17.28701226 13 20 C8.2604398 17.96317983 6.43493668 14.76469452 3.6875 10.5625 C2.98657227 9.5405957 2.98657227 9.5405957 2.27148438 8.49804688 C1.83513672 7.83998047 1.39878906 7.18191406 0.94921875 6.50390625 C0.55049561 5.90392822 0.15177246 5.3039502 -0.2590332 4.68579102 C-1 3 -1 3 0 0 Z " fill="#49A179" transform="translate(846,579)"/>
<path d="M0 0 C0.66 0.33 1.32 0.66 2 1 C-4.66560096 10.71986768 -4.66560096 10.71986768 -7.875 14.4375 C-10.1609805 16.87934193 -10.1609805 16.87934193 -11 20 C-11.99 19.67 -12.98 19.34 -14 19 C-12.23444843 16.39221627 -10.46165114 13.78943919 -8.6875 11.1875 C-8.18798828 10.44951172 -7.68847656 9.71152344 -7.17382812 8.95117188 C-6.68720703 8.23896484 -6.20058594 7.52675781 -5.69921875 6.79296875 C-5.25408936 6.1383667 -4.80895996 5.48376465 -4.3503418 4.80932617 C-3.02410468 3.03229792 -1.60659065 1.52409562 0 0 Z " fill="#478D7C" transform="translate(675,446)"/>
<path d="M0 0 C5.1711115 4.54431011 8.44663108 10.15281368 12 16 C11.34 16.99 10.68 17.98 10 19 C8.13284189 16.21681883 6.28356646 13.42220667 4.4375 10.625 C3.90447266 9.8309375 3.37144531 9.036875 2.82226562 8.21875 C2.32275391 7.45820312 1.82324219 6.69765625 1.30859375 5.9140625 C0.84251709 5.2123291 0.37644043 4.5105957 -0.10375977 3.78759766 C-0.39951904 3.19769043 -0.69527832 2.6077832 -1 2 C-0.67 1.34 -0.34 0.68 0 0 Z " fill="#419A74" transform="translate(809,547)"/>
<path d="M0 0 C4.08371057 3.6125132 7.53618364 8.13508261 10 13 C9.67 13.99 9.34 14.98 9 16 C6.00618646 13.19533807 3.8006379 10.38815731 1.6875 6.875 C0.88892578 5.57175781 0.88892578 5.57175781 0.07421875 4.2421875 C-0.28027344 3.50226563 -0.63476562 2.76234375 -1 2 C-0.67 1.34 -0.34 0.68 0 0 Z " fill="#449F6E" transform="translate(782,484)"/>
<path d="M0 0 C3.14480675 2.94259079 5.49230126 6.00060534 7.8125 9.625 C8.43769531 10.58664062 9.06289063 11.54828125 9.70703125 12.5390625 C10.13371094 13.35117187 10.56039062 14.16328125 11 15 C10.67 15.66 10.34 16.32 10 17 C5.22764902 12.78910208 1.71580545 7.76853414 -1 2 C-0.67 1.34 -0.34 0.68 0 0 Z " fill="#47A171" transform="translate(758,448)"/>
<path d="M0 0 C1.15387657 3.46162972 0.79998922 4.20002875 -0.4375 7.5 C-1.47576279 10.29353218 -2 11.97909181 -2 15 C-2 17 -2 19 -2 21 C-2.66 21 -3.32 21 -4 21 C-6.11620066 14.38687294 -5.05318552 9.10637103 -2 3 C-1.34 2.01 -0.68 1.02 0 0 Z " fill="#2D6B9E" transform="translate(401,403)"/>
<path d="M0 0 C0.61328125 1.78515625 0.61328125 1.78515625 1 4 C0.06268951 5.77765783 -0.88569117 7.55365664 -1.95703125 9.25390625 C-3.14879485 11.11537849 -3.14879485 11.11537849 -4 13.875 C-5 16 -5 16 -7.125 16.8125 C-7.74375 16.874375 -8.3625 16.93625 -9 17 C-7.51481201 12.95698825 -5.57122002 9.38853744 -3.375 5.6875 C-2.74335938 4.61886719 -2.11171875 3.55023437 -1.4609375 2.44921875 C-0.97882813 1.64097656 -0.49671875 0.83273437 0 0 Z " fill="#365C86" transform="translate(272,667)"/>
<path d="M0 0 C4.21897902 2.4731946 5.25405771 5.55578327 7 10 C7.99 11.485 7.99 11.485 9 13 C9 13.99 9 14.98 9 16 C8.34 16 7.68 16 7 16 C5.2734375 13.515625 5.2734375 13.515625 3.375 10.25 C2.74335938 9.18265625 2.11171875 8.1153125 1.4609375 7.015625 C0 4 0 4 0 0 Z " fill="#33638A" transform="translate(242,689)"/>
<path d="M0 0 C3.68006822 3.38168431 5.9785845 6.42521756 8 11 C7.34 11.66 6.68 12.32 6 13 C4.80008401 11.4050992 3.61538682 9.79873853 2.4375 8.1875 C1.44556641 6.84751953 1.44556641 6.84751953 0.43359375 5.48046875 C-0.03949219 4.66191406 -0.51257813 3.84335937 -1 3 C-0.67 2.01 -0.34 1.02 0 0 Z " fill="#4A957F" transform="translate(743,521)"/>
<path d="M0 0 C3.39605531 5.09408297 2.55340377 11.05412693 2 17 C1.00538863 20.23464915 -0.27668511 23.09190613 -2 26 C-2.93423645 22.98968256 -3.04449911 22.13349732 -2 19 C-1.34 19 -0.68 19 0 19 C-0.33 17.68 -0.66 16.36 -1 15 C-0.34 15 0.32 15 1 15 C0.67 10.05 0.34 5.1 0 0 Z " fill="#3C6EA0" transform="translate(308,454)"/>
<path d="M0 0 C0.66 0 1.32 0 2 0 C0.45614871 4.14032846 -1.51028938 7.93553053 -3.625 11.8125 C-4.11226563 12.7087207 -4.11226563 12.7087207 -4.609375 13.62304688 C-5.40379151 15.08337135 -6.20155376 16.54187491 -7 18 C-8.17482324 14.52545194 -8.06339535 14.1324858 -6.34765625 10.546875 C-5.59841315 9.27382478 -4.83617987 8.00834874 -4.0625 6.75 C-3.67642578 6.1003125 -3.29035156 5.450625 -2.89257812 4.78125 C-1.93941582 3.18087871 -0.97114076 1.5895258 0 0 Z " fill="#426380" transform="translate(362,688)"/>
<path d="M0 0 C0.66 1.32 1.32 2.64 2 4 C1.360625 4.928125 0.72125 5.85625 0.0625 6.8125 C-2.08622093 9.84219943 -2.08622093 9.84219943 -3 13 C-3.66 13 -4.32 13 -5 13 C-5 13.66 -5 14.32 -5 15 C-5.66 15 -6.32 15 -7 15 C-5.45454854 9.52067211 -2.84456788 4.88570819 0 0 Z " fill="#285788" transform="translate(364,485)"/>
<path d="M0 0 C3.24949528 2.16633018 4.02813169 3.46164929 5.75 6.875 C6.19859375 7.73867188 6.6471875 8.60234375 7.109375 9.4921875 C8.07672553 12.21604293 8.01299606 13.34397374 7 16 C5.82268014 14.0898586 4.65848895 12.17162056 3.5 10.25 C2.8503125 9.18265625 2.200625 8.1153125 1.53125 7.015625 C0 4 0 4 0 0 Z " fill="#33638E" transform="translate(323,695)"/>
<path d="M0 0 C0.96500434 2.57726769 1.12398584 3.68133464 0.109375 6.2890625 C-0.33921875 7.05992187 -0.7878125 7.83078125 -1.25 8.625 C-1.90742188 9.78902344 -1.90742188 9.78902344 -2.578125 10.9765625 C-4 13 -4 13 -7 15 C-6.42176904 10.93774452 -5.10882263 8.15237654 -2.9375 4.6875 C-2.38964844 3.80449219 -1.84179688 2.92148437 -1.27734375 2.01171875 C-0.64505859 1.01591797 -0.64505859 1.01591797 0 0 Z " fill="#2C617F" transform="translate(462,424)"/>
<path d="M0 0 C0.27457031 0.5775 0.54914063 1.155 0.83203125 1.75 C2.34648121 4.66746882 4.2030823 7.30134686 6.07421875 10 C7 12 7 12 6.64453125 14.25 C6.43183594 14.8275 6.21914062 15.405 6 16 C4.79746184 14.09273249 3.61341051 12.1737988 2.4375 10.25 C1.77621094 9.18265625 1.11492187 8.1153125 0.43359375 7.015625 C-1 4 -1 4 -0.71484375 1.609375 C-0.47894531 1.07828125 -0.24304688 0.5471875 0 0 Z " fill="#336387" transform="translate(229,665)"/>
<path d="M0 0 C4.95 0 9.9 0 15 0 C15 0.33 15 0.66 15 1 C11.04 1 7.08 1 3 1 C3.66 1.99 4.32 2.98 5 4 C5.125 6.6875 5.125 6.6875 5 9 C2.28404014 5.8459821 1.03153759 4.12615036 0 0 Z " fill="#386291" transform="translate(222,657)"/>
<path d="M0 0 C3.6607519 1.22025063 3.92339441 2.126491 5.6875 5.4375 C6.34298828 6.64212891 6.34298828 6.64212891 7.01171875 7.87109375 C8 10 8 10 8 12 C7.01 11.67 6.02 11.34 5 11 C4.5 9 4.5 9 4 7 C3.01 6.67 2.02 6.34 1 6 C0.67 4.02 0.34 2.04 0 0 Z " fill="#3C6082" transform="translate(329,687)"/>
<path d="M0 0 C0.66 0.33 1.32 0.66 2 1 C-1.96 6.94 -1.96 6.94 -6 13 C-6.66 12.01 -7.32 11.02 -8 10 C-7 8.66666667 -6 7.33333333 -5 6 C-4.484375 5.2575 -3.96875 4.515 -3.4375 3.75 C-2.963125 3.1725 -2.48875 2.595 -2 2 C-1.34 2 -0.68 2 0 2 C0 1.34 0 0.68 0 0 Z " fill="#3B8874" transform="translate(694,520)"/>
<path d="M0 0 C3.25548753 3.02295271 5.68977058 6.20462309 8 10 C8 10.66 8 11.32 8 12 C7.01 12 6.02 12 5 12 C4.15885829 10.56705502 3.32734313 9.12845595 2.5 7.6875 C1.80390625 6.48673828 1.80390625 6.48673828 1.09375 5.26171875 C0 3 0 3 0 0 Z " fill="#429D71" transform="translate(800,511)"/>
<path d="M0 0 C6.4 0.36923077 6.4 0.36923077 9.4375 3.5625 C9.953125 4.366875 10.46875 5.17125 11 6 C10.01 7.485 10.01 7.485 9 9 C6.46714143 6.58227136 4.57880609 4.15761218 3 1 C2.01 0.67 1.02 0.34 0 0 Z " fill="#295789" transform="translate(316,483)"/>
<path d="M0 0 C0 1.65 0 3.3 0 5 C-0.66 4.34 -1.32 3.68 -2 3 C-4.00401011 3.30830925 -6.00291344 3.64963394 -8 4 C-11.66819871 4.09586764 -15.33129574 4.05875149 -19 4 C-19 3.67 -19 3.34 -19 3 C-18.04287109 2.90912109 -18.04287109 2.90912109 -17.06640625 2.81640625 C-15.82697266 2.69072266 -15.82697266 2.69072266 -14.5625 2.5625 C-13.32693359 2.44068359 -13.32693359 2.44068359 -12.06640625 2.31640625 C-10.01337975 2.21069185 -10.01337975 2.21069185 -9 1 C-2.88888889 0 -2.88888889 0 0 0 Z " fill="#407B7E" transform="translate(543,357)"/>
<path d="M0 0 C3.28788824 3.11016455 5.83735988 6.01618925 8 10 C5.6875 9.8125 5.6875 9.8125 3 9 C0.39811744 5.68035674 0 4.30683959 0 0 Z " fill="#3A638C" transform="translate(364,535)"/>
<path d="M0 0 C0.88336837 2.4667645 1.1312406 3.63859372 0.22265625 6.140625 C-0.16019531 6.83671875 -0.54304688 7.5328125 -0.9375 8.25 C-1.31777344 8.95640625 -1.69804687 9.6628125 -2.08984375 10.390625 C-2.39019531 10.92171875 -2.69054687 11.4528125 -3 12 C-3.99 11.67 -4.98 11.34 -6 11 C-4.54955729 6.89041233 -2.48889248 3.56741255 0 0 Z " fill="#2C5784" transform="translate(259,527)"/>
<path d="M0 0 C0.66 0 1.32 0 2 0 C2 0.99 2 1.98 2 3 C2.66 3 3.32 3 4 3 C4 3.66 4 4.32 4 5 C4.99 5.33 5.98 5.66 7 6 C7.33 6.99 7.66 7.98 8 9 C7.34 9.66 6.68 10.32 6 11 C3.69 8.03 1.38 5.06 -1 2 C-0.67 1.34 -0.34 0.68 0 0 Z " fill="#28598A" transform="translate(288,519)"/>
<path d="M0 0 C3.21524305 1.40844718 5.32183868 3.10344786 7.75 5.625 C8.67039062 6.57246094 8.67039062 6.57246094 9.609375 7.5390625 C10.29773438 8.26222656 10.29773438 8.26222656 11 9 C10.34 9.66 9.68 10.32 9 11 C7.49403892 9.54782324 5.99537896 8.08807139 4.5 6.625 C3.6646875 5.81289063 2.829375 5.00078125 1.96875 4.1640625 C0 2 0 2 0 0 Z " fill="#2B5C81" transform="translate(433,435)"/>
<path d="M0 0 C3.2578125 -0.29296875 3.2578125 -0.29296875 7.125 -0.1875 C9.04699219 -0.14689453 9.04699219 -0.14689453 11.0078125 -0.10546875 C11.99523437 -0.07066406 12.98265625 -0.03585937 14 0 C14 0.33 14 0.66 14 1 C13.16855469 1.01417969 12.33710938 1.02835938 11.48046875 1.04296875 C10.39378906 1.09066406 9.30710937 1.13835938 8.1875 1.1875 C7.10855469 1.22230469 6.02960938 1.25710938 4.91796875 1.29296875 C1.79413242 1.70502022 1.79413242 1.70502022 0.30078125 4.48828125 C-0.12847656 5.31714844 -0.55773437 6.14601563 -1 7 C-1.99 7.33 -2.98 7.66 -4 8 C-2.87548273 5.0280615 -1.77706209 2.66559313 0 0 Z " fill="#335E8B" transform="translate(278,657)"/>
<path d="M0 0 C-1.75 3.875 -1.75 3.875 -4 5 C-6.3329866 5.04022391 -8.66706666 5.04320247 -11 5 C-11.33 4.34 -11.66 3.68 -12 3 C-10.68 2.67 -9.36 2.34 -8 2 C-8 2.66 -8 3.32 -8 4 C-7.236875 3.34 -6.47375 2.68 -5.6875 2 C-3 0 -3 0 0 0 Z " fill="#43857C" transform="translate(677,549)"/>
<path d="M0 0 C2.96404505 2.80804268 5.44499019 5.18315774 7 9 C6.01 9.33 5.02 9.66 4 10 C3.896875 9.360625 3.79375 8.72125 3.6875 8.0625 C3.460625 7.381875 3.23375 6.70125 3 6 C2.01 5.67 1.02 5.34 0 5 C0 3.35 0 1.7 0 0 Z " fill="#295C8B" transform="translate(303,518)"/>
<path d="M0 0 C0.99 0.33 1.98 0.66 3 1 C3 1.66 3 2.32 3 3 C4.32 3.66 5.64 4.32 7 5 C7 6.65 7 8.3 7 10 C4.66666667 7.66666667 2.33333333 5.33333333 0 3 C0 2.01 0 1.02 0 0 Z " fill="#325B87" transform="translate(328,512)"/>
<path d="M0 0 C0.99 0.66 1.98 1.32 3 2 C2.56042969 2.39832031 2.12085938 2.79664063 1.66796875 3.20703125 C-0.21189753 5.22777743 -1.38480201 7.25814428 -2.6875 9.6875 C-3.34298828 10.89986328 -3.34298828 10.89986328 -4.01171875 12.13671875 C-4.33785156 12.75160156 -4.66398437 13.36648438 -5 14 C-5.68359375 12.328125 -5.68359375 12.328125 -6 10 C-4.78515625 7.421875 -4.78515625 7.421875 -3.0625 4.75 C-2.49660156 3.85796875 -1.93070312 2.9659375 -1.34765625 2.046875 C-0.90292969 1.37140625 -0.45820313 0.6959375 0 0 Z " fill="#3F6A92" transform="translate(408,435)"/>
<path d="M0 0 C1.43739513 -0.02712066 2.87493863 -0.04645067 4.3125 -0.0625 C5.51326172 -0.07990234 5.51326172 -0.07990234 6.73828125 -0.09765625 C9 0 9 0 12 1 C12 1.66 12 2.32 12 3 C12.66 3.33 13.32 3.66 14 4 C12.22773547 3.71715982 10.457212 3.42339502 8.6875 3.125 C7.20830078 2.88136719 7.20830078 2.88136719 5.69921875 2.6328125 C3 2 3 2 0 0 Z " fill="#437AAA" transform="translate(634,694)"/>
<path d="M0 0 C0.33 0 0.66 0 1 0 C1.34615998 5.65394631 0.43425238 9.03006806 -2 14 C-2.33 14 -2.66 14 -3 14 C-2.48594831 9.03083364 -1.76615118 4.70973649 0 0 Z " fill="#2D5E88" transform="translate(219,683)"/>
<path d="M0 0 C0.33 0.99 0.66 1.98 1 3 C1.99 3.33 2.98 3.66 4 4 C5.1875 6.5625 5.1875 6.5625 6 9 C5.01 9 4.02 9 3 9 C0.75 6.75 0.75 6.75 -1 4 C-0.75 1.6875 -0.75 1.6875 0 0 Z " fill="#2D5785" transform="translate(355,542)"/>
<path d="M0 0 C0 0.66 0 1.32 0 2 C-2.52475462 3.26237731 -4.31200466 3.09856404 -7.125 3.0625 C-8.03507812 3.05347656 -8.94515625 3.04445313 -9.8828125 3.03515625 C-10.58148438 3.02355469 -11.28015625 3.01195312 -12 3 C-12 2.34 -12 1.68 -12 1 C-10.56274129 0.83126522 -9.12518162 0.66509263 -7.6875 0.5 C-6.88699219 0.4071875 -6.08648437 0.314375 -5.26171875 0.21875 C-3 0 -3 0 0 0 Z " fill="#265580" transform="translate(425,435)"/>
<path d="M0 0 C0 0.66 0 1.32 0 2 C-0.66 2 -1.32 2 -2 2 C-2.0825 2.5775 -2.165 3.155 -2.25 3.75 C-3.20531013 6.6159304 -4.78469173 7.9990764 -7 10 C-4.54716981 0 -4.54716981 0 0 0 Z " fill="#1A4475" transform="translate(242,559)"/>
<path d="M0 0 C0.66 0 1.32 0 2 0 C0.43358249 4.30764815 -1.68336156 8.06171464 -4 12 C-4.33 12 -4.66 12 -5 12 C-5.70731186 7.33174173 -3.92277529 4.96719769 -1.2890625 1.35546875 C-0.86367188 0.90816406 -0.43828125 0.46085938 0 0 Z " fill="#2D5B88" transform="translate(400,555)"/>
<path d="M0 0 C0.99 0.33 1.98 0.66 3 1 C3.33 2.65 3.66 4.3 4 6 C4.99 6.33 5.98 6.66 7 7 C6.01 8.485 6.01 8.485 5 10 C4.15801693 8.90241493 3.32669329 7.79664683 2.5 6.6875 C2.0359375 6.07261719 1.571875 5.45773437 1.09375 4.82421875 C0 3 0 3 0 0 Z " fill="#469279" transform="translate(732,506)"/>
<path d="M0 0 C0.66 0.99 1.32 1.98 2 3 C0.625 6.6875 0.625 6.6875 -1 10 C-1.99 9.67 -2.98 9.34 -4 9 C-2.80100302 5.9168649 -1.52299523 2.93720508 0 0 Z " fill="#3C6289" transform="translate(394,432)"/>
<path d="M0 0 C-0.375 1.9375 -0.375 1.9375 -1 4 C-4.01324195 5.50662097 -6.68286377 5.17770373 -10 5 C-10.66 4.34 -11.32 3.68 -12 3 C-11.0925 3.061875 -10.185 3.12375 -9.25 3.1875 C-5.26355168 2.9575126 -3.59194126 0 0 0 Z " fill="#527997" transform="translate(426,420)"/>
<path d="M0 0 C2.66735273 2.48952921 4.55746343 4.63408134 6 8 C5.34 8.66 4.68 9.32 4 10 C3.13342884 8.90554162 2.28207276 7.79902219 1.4375 6.6875 C0.96183594 6.07261719 0.48617187 5.45773437 -0.00390625 4.82421875 C-0.33261719 4.22222656 -0.66132812 3.62023437 -1 3 C-0.67 2.01 -0.34 1.02 0 0 Z " fill="#3E9C74" transform="translate(791,520)"/>
<path d="M0 0 C3.88862987 1.26117725 5.89375599 2.45264167 8 6 C8 6.66 8 7.32 8 8 C7.34 8 6.68 8 6 8 C6 7.34 6 6.68 6 6 C5.38125 5.7525 4.7625 5.505 4.125 5.25 C1.64931313 3.79371361 1.04874998 2.62187494 0 0 Z " fill="#46967C" transform="translate(720,468)"/>
<path d="M0 0 C0.99 0.33 1.98 0.66 3 1 C1.6875 3 1.6875 3 0 5 C-0.99 5 -1.98 5 -3 5 C-3.33 5.99 -3.66 6.98 -4 8 C-4.66 7.67 -5.32 7.34 -6 7 C-4.02 4.69 -2.04 2.38 0 0 Z " fill="#49A376" transform="translate(697,403)"/>
<path d="M0 0 C0.97533063 2.63339271 1.019574 3.92348347 0.3125 6.6875 C-1 9 -1 9 -3.125 9.8125 C-3.74375 9.874375 -4.3625 9.93625 -5 10 C-3.66511872 6.40608886 -2.03977277 3.24509304 0 0 Z " fill="#3B6387" transform="translate(398,533)"/>
<path d="M0 0 C0.33 0.66 0.66 1.32 1 2 C0.22265625 3.9453125 0.22265625 3.9453125 -0.9375 6.125 C-1.31777344 6.84945312 -1.69804687 7.57390625 -2.08984375 8.3203125 C-2.39019531 8.87460937 -2.69054687 9.42890625 -3 10 C-3.33 10 -3.66 10 -4 10 C-4.25 7.25 -4.25 7.25 -4 4 C-2 1.625 -2 1.625 0 0 Z " fill="#214574" transform="translate(270,511)"/>
<path d="M0 0 C3.93846154 3.32307692 3.93846154 3.32307692 4.25 6.75 C4.1675 7.4925 4.085 8.235 4 9 C1.33264727 6.51047079 -0.55746343 4.36591866 -2 1 C-1.34 0.67 -0.68 0.34 0 0 Z " fill="#447F87" transform="translate(585,507)"/>
<path d="M0 0 C0 0.66 0 1.32 0 2 C-0.66 2 -1.32 2 -2 2 C-2.33 2.99 -2.66 3.98 -3 5 C-4.89353366 6.89353366 -6.84526801 8.4198632 -9 10 C-7.6834994 5.81113445 -4.97532335 0 0 0 Z " fill="#44977C" transform="translate(716,468)"/>
<path d="M0 0 C0.99 0.33 1.98 0.66 3 1 C0.69 3.31 -1.62 5.62 -4 8 C-4.66 7.01 -5.32 6.02 -6 5 C-1.60546875 0.99609375 -1.60546875 0.99609375 0 0 Z " fill="#3E9873" transform="translate(738,443)"/>
<path d="M0 0 C0.75 1.5625 0.75 1.5625 1 4 C-0.13084437 6.50286409 -1.52139516 8.67007722 -3 11 C-3.66 11 -4.32 11 -5 11 C-3.77472971 6.94718288 -2.30119506 3.55639236 0 0 Z " fill="#3E6F86" transform="translate(461,324)"/>
<path d="M0 0 C0.99 0 1.98 0 3 0 C3.99 2.64 4.98 5.28 6 8 C5.34 8.66 4.68 9.32 4 10 C3.32845067 8.71086513 2.66291141 7.41859796 2 6.125 C1.62875 5.40570312 1.2575 4.68640625 0.875 3.9453125 C0 2 0 2 0 0 Z " fill="#2E5F8B" transform="translate(315,682)"/>
<path d="M0 0 C0.99 0 1.98 0 3 0 C1.6302836 3.99500618 -0.25722422 6.80009492 -3 10 C-2.39009109 6.44219804 -1.4216319 3.3171411 0 0 Z " fill="#3C638B" transform="translate(252,561)"/>
<path d="M0 0 C0.66 0 1.32 0 2 0 C2.93065133 2.60582371 3.14917407 3.64198224 2.0625 6.25 C1.5365625 7.11625 1.5365625 7.11625 1 8 C0.01 8 -0.98 8 -2 8 C-1.34 5.36 -0.68 2.72 0 0 Z " fill="#23477A" transform="translate(340,526)"/>
<path d="M0 0 C1.32 0.33 2.64 0.66 4 1 C1.03 3.475 1.03 3.475 -2 6 C-2.66 5.67 -3.32 5.34 -4 5 C-2.68 3.35 -1.36 1.7 0 0 Z " fill="#467982" transform="translate(527,431)"/>
<path d="M0 0 C0.66 0.66 1.32 1.32 2 2 C0.35 4.97 -1.3 7.94 -3 11 C-4 7 -4 7 -3.22265625 5.078125 C-1.61132812 2.5390625 -1.61132812 2.5390625 0 0 Z " fill="#39697F" transform="translate(473,430)"/>
<path d="M0 0 C0.6875 1.6875 0.6875 1.6875 1 4 C-0.25 6.6875 -0.25 6.6875 -2 9 C-2.99 9.33 -3.98 9.66 -5 10 C-3.66511872 6.40608886 -2.03977277 3.24509304 0 0 Z " fill="#3D7286" transform="translate(476,400)"/>
<path d="M0 0 C0.99 0 1.98 0 3 0 C5.09230769 4.43076923 5.09230769 4.43076923 4.625 7.3125 C4.41875 7.869375 4.2125 8.42625 4 9 C0 2.25 0 2.25 0 0 Z " fill="#3E6A92" transform="translate(236,681)"/>
<path d="M0 0 C0.66 0.66 1.32 1.32 2 2 C1.63318342 4.93453261 1.13562754 5.86437246 -1 8 C-1.66 7.67 -2.32 7.34 -3 7 C-1.125 2.25 -1.125 2.25 0 0 Z " fill="#366087" transform="translate(392,543)"/>
<path d="M0 0 C1.65 1.65 3.3 3.3 5 5 C4.67 5.66 4.34 6.32 4 7 C3.01 7 2.02 7 1 7 C0.67 4.69 0.34 2.38 0 0 Z " fill="#346490" transform="translate(298,511)"/>
<path d="M0 0 C0.66 0.66 1.32 1.32 2 2 C0.35 4.64 -1.3 7.28 -3 10 C-4 6 -4 6 -2.0625 2.75 C-1.381875 1.8425 -0.70125 0.935 0 0 Z " fill="#255983" transform="translate(237,509)"/>
<path d="M0 0 C2.0625 1.625 2.0625 1.625 4 4 C3.75 7.25 3.75 7.25 3 10 C0.70366176 6.55549263 0.45983515 4.06187717 0 0 Z " fill="#186095" transform="translate(248,483)"/>
<path d="M0 0 C0 0.33 0 0.66 0 1 C-0.928125 1.2475 -1.85625 1.495 -2.8125 1.75 C-6.22175293 3.08696193 -7.03412252 4.05118379 -9 7 C-9.66 7 -10.32 7 -11 7 C-8.38092426 1.15744643 -6.57566735 -0.43837782 0 0 Z " fill="#2E70A4" transform="translate(247,481)"/>
<path d="M0 0 C3.37462715 0.54723683 5.08235 1.0549 8 3 C7.34 4.32 6.68 5.64 6 7 C5.38125 6.21625 4.7625 5.4325 4.125 4.625 C2.10141339 2.03162353 2.10141339 2.03162353 0 0 Z " fill="#2E5A8C" transform="translate(288,450)"/>
<path d="M0 0 C2.31 1.98 4.62 3.96 7 6 C6.01 6.33 5.02 6.66 4 7 C2.35 5.02 0.7 3.04 -1 1 C-0.67 0.67 -0.34 0.34 0 0 Z " fill="#346B95" transform="translate(443,426)"/>
<path d="M0 0 C2.91227269 3.28804981 4.49701212 5.59885603 5 10 C1.91910327 7.22719294 0.31224548 4.93673644 -1 1 C-0.67 0.67 -0.34 0.34 0 0 Z " fill="#458485" transform="translate(576,412)"/>
<path d="M0 0 C0.6875 1.6875 0.6875 1.6875 1 4 C-0.25 6.6875 -0.25 6.6875 -2 9 C-2.99 9.33 -3.98 9.66 -5 10 C-3.66511872 6.40608886 -2.03977277 3.24509304 0 0 Z " fill="#397787" transform="translate(494,370)"/>
<path d="M0 0 C0.6875 1.6875 0.6875 1.6875 1 4 C-0.4375 6.75 -0.4375 6.75 -2 9 C-2.6875 7.3125 -2.6875 7.3125 -3 5 C-1.5625 2.25 -1.5625 2.25 0 0 Z " fill="#2F6586" transform="translate(438,365)"/>
<path d="M0 0 C0.75 1.625 0.75 1.625 1 4 C-0.9375 7.25 -0.9375 7.25 -3 10 C-3.75 8.375 -3.75 8.375 -4 6 C-2.0625 2.75 -2.0625 2.75 0 0 Z " fill="#306084" transform="translate(206,557)"/>
<path d="M0 0 C0.99 0 1.98 0 3 0 C1.7508258 3.45925163 0.32472205 6.14693203 -2 9 C-1.51421457 5.87709365 -1.0013988 3.00419641 0 0 Z " fill="#4A6A87" transform="translate(341,551)"/>
<path d="M0 0 C1.32 1.32 2.64 2.64 4 4 C3.01 5.485 3.01 5.485 2 7 C0.4375 5.75 0.4375 5.75 -1 4 C-0.6875 1.8125 -0.6875 1.8125 0 0 Z " fill="#355A87" transform="translate(358,528)"/>
<path d="M0 0 C0.99 0 1.98 0 3 0 C5 3 5 3 6 6 C5.34 6.66 4.68 7.32 4 8 C2.68 5.36 1.36 2.72 0 0 Z " fill="#539089" transform="translate(646,524)"/>
<path d="M0 0 C2.25245881 2.68841859 3.88213958 4.64641875 5 8 C2.4636387 6.98545548 1.20648539 6.3146444 -0.3125 4 C-0.539375 3.34 -0.76625 2.68 -1 2 C-0.67 1.34 -0.34 0.68 0 0 Z " fill="#419579" transform="translate(756,518)"/>
<path d="M0 0 C3.25543229 0.34879632 4.01873107 1.02133261 6.25 3.5625 C6.8275 4.366875 7.405 5.17125 8 6 C7.01 6 6.02 6 5 6 C4.67 5.01 4.34 4.02 4 3 C1.99983534 1.79117904 1.99983534 1.79117904 0 1 C0 0.67 0 0.34 0 0 Z " fill="#3B6C89" transform="translate(464,451)"/>
<path d="M0 0 C0.6875 1.6875 0.6875 1.6875 1 4 C-0.3125 6.75 -0.3125 6.75 -2 9 C-2.66 9 -3.32 9 -4 9 C-2.94124926 5.59687262 -1.99097846 2.98646769 0 0 Z " fill="#426E87" transform="translate(451,342)"/>
<path d="M0 0 C0.66 0 1.32 0 2 0 C0.7508258 3.45925163 -0.67527795 6.14693203 -3 9 C-2.5020163 5.26512223 -2.12508244 3.18762365 0 0 Z " fill="#40698F" transform="translate(362,688)"/>
<path d="M0 0 C0.66 0 1.32 0 2 0 C0.7508258 3.45925163 -0.67527795 6.14693203 -3 9 C-2.5020163 5.26512223 -2.12508244 3.18762365 0 0 Z " fill="#3F6689" transform="translate(277,681)"/>
<path d="M0 0 C3.875 4.75 3.875 4.75 5 7 C3.125 6.8125 3.125 6.8125 1 6 C-0.25 3.4375 -0.25 3.4375 -1 1 C-0.67 0.67 -0.34 0.34 0 0 Z " fill="#449B73" transform="translate(815,533)"/>
<path d="M0 0 C0.66 0.33 1.32 0.66 2 1 C0.35 3.64 -1.3 6.28 -3 9 C-4 5 -4 5 -3 3 C-2.34 3 -1.68 3 -1 3 C-0.67 2.01 -0.34 1.02 0 0 Z " fill="#429076" transform="translate(708,499)"/>
<path d="M0 0 C0 0.33 0 0.66 0 1 C-4.1196377 2.29243536 -7.66831683 3.26252625 -12 3 C-8.2391768 -0.7608232 -5.0273023 -0.25136512 0 0 Z " fill="#29699E" transform="translate(287,500)"/>
<path d="M0 0 C0.66 0.99 1.32 1.98 2 3 C1.125 5.6875 1.125 5.6875 0 8 C-0.99 7.67 -1.98 7.34 -3 7 C-1.125 2.25 -1.125 2.25 0 0 Z " fill="#3D6791" transform="translate(373,469)"/>
<path d="M0 0 C0.66 0.99 1.32 1.98 2 3 C0.35 4.65 -1.3 6.3 -3 8 C-3.66 7.67 -4.32 7.34 -5 7 C-3.35 4.69 -1.7 2.38 0 0 Z " fill="#3E8B7D" transform="translate(660,466)"/>
<path d="M0 0 C-0.61875 0.268125 -1.2375 0.53625 -1.875 0.8125 C-4.2995233 1.95556848 -4.2995233 1.95556848 -6 5 C-6.99 5 -7.98 5 -9 5 C-7.35234966 0.05704899 -4.76872479 -0.25776891 0 0 Z " fill="#3BA87C" transform="translate(755,445)"/>
<path d="M0 0 C1 3 1 3 -0.3125 5.6875 C-0.869375 6.450625 -1.42625 7.21375 -2 8 C-2.66 8 -3.32 8 -4 8 C-3.40138258 5.64828869 -2.73075648 3.3140622 -2 1 C-1.34 0.67 -0.68 0.34 0 0 Z " fill="#204C6C" transform="translate(466,442)"/>
<path d="M0 0 C1 3 1 3 -0.4375 6.1875 C-1.2109375 7.5796875 -1.2109375 7.5796875 -2 9 C-2.66 9 -3.32 9 -4 9 C-2.94124926 5.59687262 -1.99097846 2.98646769 0 0 Z " fill="#3B7288" transform="translate(470,308)"/>
</svg>
